RedHatTextVF-LightItalic.ufo
<glyph name="exclam" format="2">
  <advance width="201"/>
  <unicode hex="0021"/>
  <outline>
    <contour>
      <point x="69" y="199" type="line"/>
      <point x="110" y="199" type="line"/>
      <point x="227" y="710" type="line"/>
      <point x="174" y="710" type="line"/>
    </contour>
    <contour>
      <point x="49" y="-8" type="curve" smooth="yes"/>
      <point x="79" y="-8"/>
      <point x="104" y="15"/>
      <point x="104" y="44" type="curve" smooth="yes"/>
      <point x="104" y="67"/>
      <point x="87" y="85"/>
      <point x="65" y="85" type="curve" smooth="yes"/>
      <point x="35" y="85"/>
      <point x="10" y="62"/>
      <point x="10" y="33" type="curve" smooth="yes"/>
      <point x="10" y="10"/>
      <point x="27" y="-8"/>
    </contour>
  </outline>
</glyph>
<glyph name="numbersign" format="2">
  <advance width="659"/>
  <unicode hex="0023"/>
  <guideline x="721" y="451" angle="0.0" identifier="HQiIgbmBQ5"/>
  <outline>
    <contour>
      <point x="-4" y="0" type="line"/>
      <point x="46" y="0" type="line"/>
      <point x="171" y="228" type="line"/>
      <point x="359" y="228" type="line"/>
      <point x="234" y="0" type="line"/>
      <point x="284" y="0" type="line"/>
      <point x="409" y="228" type="line"/>
      <point x="545" y="228" type="line"/>
      <point x="554" y="271" type="line"/>
      <point x="432" y="271" type="line"/>
      <point x="519" y="429" type="line"/>
      <point x="636" y="429" type="line"/>
      <point x="645" y="472" type="line"/>
      <point x="542" y="472" type="line"/>
      <point x="667" y="700" type="line"/>
      <point x="617" y="700" type="line"/>
      <point x="492" y="472" type="line"/>
      <point x="304" y="472" type="line"/>
      <point x="429" y="700" type="line"/>
      <point x="379" y="700" type="line"/>
      <point x="254" y="472" type="line"/>
      <point x="118" y="472" type="line"/>
      <point x="109" y="429" type="line"/>
      <point x="231" y="429" type="line"/>
      <point x="144" y="271" type="line"/>
      <point x="27" y="271" type="line"/>
      <point x="18" y="228" type="line"/>
      <point x="121" y="228" type="line"/>
    </contour>
    <contour>
      <point x="194" y="271" type="line"/>
      <point x="281" y="429" type="line"/>
      <point x="469" y="429" type="line"/>
      <point x="382" y="271" type="line"/>
    </contour>
  </outline>
</glyph>
<glyph name="quotesingle" format="2">
  <advance width="189"/>
  <unicode hex="0027"/>
  <outline>
    <contour>
      <point x="145" y="554" type="line"/>
      <point x="180" y="554" type="line"/>
      <point x="229" y="750" type="line"/>
      <point x="176" y="750" type="line"/>
    </contour>
  </outline>
</glyph>
<glyph name="parenleft" format="2">
  <advance width="385"/>
  <unicode hex="0028"/>
  <outline>
    <contour>
      <point x="214" y="-220" type="curve"/>
      <point x="246" y="-186" type="line"/>
      <point x="161" y="-117"/>
      <point x="117" y="-5"/>
      <point x="117" y="140" type="curve" smooth="yes"/>
      <point x="117" y="372"/>
      <point x="239" y="588"/>
      <point x="420" y="675" type="curve"/>
      <point x="398" y="715" type="line"/>
      <point x="197" y="618"/>
      <point x="66" y="389"/>
      <point x="66" y="139" type="curve" smooth="yes"/>
      <point x="66" y="-17"/>
      <point x="117" y="-139"/>
    </contour>
  </outline>
</glyph>
<glyph name="asterisk" format="2">
  <advance width="436"/>
  <unicode hex="002A"/>
  <outline>
    <contour>
      <point x="223" y="350" type="line"/>
      <point x="262" y="350" type="line"/>
      <point x="290" y="496" type="line"/>
      <point x="388" y="412" type="line"/>
      <point x="417" y="444" type="line"/>
      <point x="313" y="526" type="line"/>
      <point x="446" y="592" type="line"/>
      <point x="429" y="628" type="line"/>
      <point x="305" y="564" type="line"/>
      <point x="334" y="700" type="line"/>
      <point x="295" y="700" type="line"/>
      <point x="269" y="563" type="line"/>
      <point x="173" y="645" type="line"/>
      <point x="146" y="614" type="line"/>
      <point x="245" y="533" type="line"/>
      <point x="109" y="464" type="line"/>
      <point x="126" y="428" type="line"/>
      <point x="256" y="497" type="line"/>
    </contour>
  </outline>
</glyph>
<glyph name="plus" format="2">
  <advance width="600"/>
  <unicode hex="002B"/>
  <outline>
    <contour>
      <point x="282" y="152" type="line"/>
      <point x="327" y="152" type="line"/>
      <point x="366" y="334" type="line"/>
      <point x="534" y="334" type="line"/>
      <point x="543" y="379" type="line"/>
      <point x="376" y="379" type="line"/>
      <point x="415" y="561" type="line"/>
      <point x="370" y="561" type="line"/>
      <point x="331" y="379" type="line"/>
      <point x="162" y="379" type="line"/>
      <point x="153" y="334" type="line"/>
      <point x="321" y="334" type="line"/>
    </contour>
  </outline>
</glyph>
<glyph name="period" format="2">
  <advance width="250"/>
  <unicode hex="002E"/>
  <outline>
    <contour>
      <point x="74" y="-8" type="curve" smooth="yes"/>
      <point x="104" y="-8"/>
      <point x="129" y="15"/>
      <point x="129" y="44" type="curve" smooth="yes"/>
      <point x="129" y="67"/>
      <point x="112" y="85"/>
      <point x="90" y="85" type="curve" smooth="yes"/>
      <point x="60" y="85"/>
      <point x="35" y="62"/>
      <point x="35" y="33" type="curve" smooth="yes"/>
      <point x="35" y="10"/>
      <point x="52" y="-8"/>
    </contour>
  </outline>
</glyph>
<glyph name="four" format="2">
  <advance width="587"/>
  <unicode hex="0034"/>
  <outline>
    <contour>
      <point x="357" y="0" type="line"/>
      <point x="406" y="0" type="line"/>
      <point x="448" y="195" type="line"/>
      <point x="546" y="195" type="line"/>
      <point x="556" y="240" type="line"/>
      <point x="457" y="240" type="line"/>
      <point x="556" y="700" type="line"/>
      <point x="505" y="700" type="line"/>
      <point x="37" y="233" type="line"/>
      <point x="29" y="195" type="line"/>
      <point x="399" y="195" type="line"/>
    </contour>
    <contour>
      <point x="108" y="240" type="line"/>
      <point x="490" y="621" type="line"/>
      <point x="408" y="240" type="line"/>
    </contour>
  </outline>
</glyph>
<glyph name="nine" format="2">
  <advance width="608"/>
  <unicode hex="0039"/>
  <outline>
    <contour>
      <point x="330" y="711" type="curve" smooth="yes"/>
      <point x="201" y="711"/>
      <point x="86" y="620"/>
      <point x="86" y="470" type="curve" smooth="yes"/>
      <point x="86" y="354"/>
      <point x="172" y="262"/>
      <point x="306" y="262" type="curve" smooth="yes"/>
      <point x="384" y="262"/>
      <point x="456" y="298"/>
      <point x="513" y="359" type="curve"/>
      <point x="493" y="158"/>
      <point x="372" y="34"/>
      <point x="230" y="34" type="curve" smooth="yes"/>
      <point x="177" y="34"/>
      <point x="133" y="51"/>
      <point x="76" y="88" type="curve"/>
      <point x="53" y="47" type="line"/>
      <point x="114" y="7"/>
      <point x="170" y="-11"/>
      <point x="233" y="-11" type="curve" smooth="yes"/>
      <point x="412" y="-11"/>
      <point x="567" y="151"/>
      <point x="567" y="428" type="curve" smooth="yes"/>
      <point x="567" y="610"/>
      <point x="450" y="711"/>
    </contour>
    <contour>
      <point x="322" y="666" type="curve" smooth="yes"/>
      <point x="432" y="666"/>
      <point x="518" y="576"/>
      <point x="516" y="408" type="curve"/>
      <point x="462" y="345"/>
      <point x="385" y="306"/>
      <point x="310" y="306" type="curve" smooth="yes"/>
      <point x="201" y="306"/>
      <point x="137" y="371"/>
      <point x="137" y="467" type="curve" smooth="yes"/>
      <point x="137" y="581"/>
      <point x="217" y="666"/>
    </contour>
  </outline>
</glyph>
<glyph name="question" format="2">
  <advance width="495"/>
  <unicode hex="003F"/>
  <guideline x="351" y="201" angle="78.00000000000038" color="0.999,0.001,0.001,0.999" identifier="WMI4ZTKeZ3"/>
  <outline>
    <contour>
      <point x="164" y="-8" type="curve" smooth="yes"/>
      <point x="194" y="-8"/>
      <point x="219" y="15"/>
      <point x="219" y="44" type="curve" smooth="yes"/>
      <point x="219" y="67"/>
      <point x="202" y="85"/>
      <point x="180" y="85" type="curve" smooth="yes"/>
      <point x="150" y="85"/>
      <point x="125" y="62"/>
      <point x="125" y="33" type="curve" smooth="yes"/>
      <point x="125" y="10"/>
      <point x="142" y="-8"/>
    </contour>
    <contour>
      <point x="181" y="201" type="curve"/>
      <point x="225" y="201" type="line"/>
      <point x="225" y="260"/>
      <point x="254" y="304"/>
      <point x="318" y="342" type="curve" smooth="yes"/>
      <point x="386" y="382" type="line" smooth="yes"/>
      <point x="467" y="431"/>
      <point x="503" y="482"/>
      <point x="503" y="554" type="curve" smooth="yes"/>
      <point x="503" y="644"/>
      <point x="428" y="711"/>
      <point x="322" y="711" type="curve" smooth="yes"/>
      <point x="252" y="711"/>
      <point x="179" y="678"/>
      <point x="113" y="619" type="curve"/>
      <point x="144" y="579" type="line"/>
      <point x="200" y="631"/>
      <point x="260" y="663"/>
      <point x="320" y="663" type="curve" smooth="yes"/>
      <point x="399" y="663"/>
      <point x="454" y="616"/>
      <point x="454" y="553" type="curve"/>
      <point x="454" y="502"/>
      <point x="421" y="452"/>
      <point x="362" y="417" type="curve" smooth="yes"/>
      <point x="300" y="381" type="line" smooth="yes"/>
      <point x="218" y="336"/>
      <point x="181" y="279"/>
    </contour>
  </outline>
</glyph>
<glyph name="at" format="2">
  <advance width="762"/>
  <unicode hex="0040"/>
  <outline>
    <contour>
      <point x="395" y="-144" type="curve" smooth="yes"/>
      <point x="461" y="-144"/>
      <point x="524" y="-128"/>
      <point x="577" y="-98" type="curve"/>
      <point x="562" y="-61" type="line"/>
      <point x="514" y="-89"/>
      <point x="457" y="-104"/>
      <point x="399" y="-104" type="curve" smooth="yes"/>
      <point x="226" y="-104"/>
      <point x="98" y="29"/>
      <point x="98" y="208" type="curve" smooth="yes"/>
      <point x="98" y="391"/>
      <point x="227" y="534"/>
      <point x="388" y="534" type="curve" smooth="yes"/>
      <point x="547" y="534"/>
      <point x="665" y="419"/>
      <point x="665" y="266" type="curve" smooth="yes"/>
      <point x="665" y="168"/>
      <point x="611" y="97"/>
      <point x="545" y="97" type="curve" smooth="yes"/>
      <point x="498" y="97"/>
      <point x="477" y="125"/>
      <point x="487" y="176" type="curve" smooth="yes"/>
      <point x="523" y="365" type="line"/>
      <point x="481" y="365" type="line"/>
      <point x="476" y="336" type="line"/>
      <point x="452" y="362"/>
      <point x="416" y="378"/>
      <point x="378" y="378" type="curve" smooth="yes"/>
      <point x="290" y="378"/>
      <point x="218" y="299"/>
      <point x="218" y="202" type="curve" smooth="yes"/>
      <point x="218" y="117"/>
      <point x="277" y="53"/>
      <point x="355" y="53" type="curve" smooth="yes"/>
      <point x="388" y="53"/>
      <point x="424" y="68"/>
      <point x="456" y="98" type="curve"/>
      <point x="472" y="72"/>
      <point x="502" y="57"/>
      <point x="542" y="57" type="curve" smooth="yes"/>
      <point x="630" y="57"/>
      <point x="706" y="141"/>
      <point x="706" y="266" type="curve" smooth="yes"/>
      <point x="706" y="441"/>
      <point x="571" y="574"/>
      <point x="390" y="574" type="curve" smooth="yes"/>
      <point x="199" y="574"/>
      <point x="57" y="416"/>
      <point x="57" y="207" type="curve" smooth="yes"/>
      <point x="57" y="7"/>
      <point x="201" y="-144"/>
    </contour>
    <contour>
      <point x="363" y="91" type="curve" smooth="yes"/>
      <point x="302" y="91"/>
      <point x="261" y="137"/>
      <point x="261" y="204" type="curve" smooth="yes"/>
      <point x="261" y="278"/>
      <point x="312" y="339"/>
      <point x="375" y="339" type="curve" smooth="yes"/>
      <point x="414" y="339"/>
      <point x="449" y="320"/>
      <point x="467" y="290" type="curve"/>
      <point x="446" y="178" type="line" smooth="yes"/>
      <point x="443" y="160"/>
      <point x="442" y="144"/>
      <point x="445" y="129" type="curve"/>
      <point x="423" y="105"/>
      <point x="393" y="91"/>
    </contour>
  </outline>
</glyph>
<glyph name="F" format="2">
  <advance width="584"/>
  <unicode hex="0046"/>
  <outline>
    <contour>
      <point x="40" y="0" type="line"/>
      <point x="91" y="0" type="line"/>
      <point x="160" y="325" type="line"/>
      <point x="435" y="325" type="line"/>
      <point x="445" y="372" type="line"/>
      <point x="170" y="372" type="line"/>
      <point x="230" y="653" type="line"/>
      <point x="633" y="653" type="line"/>
      <point x="643" y="700" type="line"/>
      <point x="189" y="700" type="line"/>
    </contour>
  </outline>
</glyph>
<glyph name="I" format="2">
  <advance width="233"/>
  <unicode hex="0049"/>
  <guideline x="362" y="700" angle="0.0" color="0.999,0.001,0.001,0.999" identifier="woge9MRX1K"/>
  <anchor x="214" y="700" name="top"/>
  <anchor x="91" y="0" name="bottom"/>
  <outline>
    <contour>
      <point x="40" y="0" type="line"/>
      <point x="91" y="0" type="line"/>
      <point x="240" y="700" type="line"/>
      <point x="189" y="700" type="line"/>
    </contour>
  </outline>
</glyph>
<glyph name="J" format="2">
  <advance width="570"/>
  <unicode hex="004A"/>
  <guideline x="714" y="700" angle="0.0" color="0.999,0.001,0.001,0.999" identifier="Bb52Jfv7jg"/>
  <anchor x="566" y="700" name="top"/>
  <outline>
    <contour>
      <point x="226" y="-11" type="curve" smooth="yes"/>
      <point x="377" y="-11"/>
      <point x="461" y="86"/>
      <point x="496" y="251" type="curve" smooth="yes"/>
      <point x="592" y="700" type="line"/>
      <point x="541" y="700" type="line"/>
      <point x="445" y="251" type="line" smooth="yes"/>
      <point x="416" y="115"/>
      <point x="344" y="36"/>
      <point x="227" y="36" type="curve" smooth="yes"/>
      <point x="137" y="36"/>
      <point x="76" y="84"/>
      <point x="54" y="177" type="curve"/>
      <point x="10" y="159" type="line"/>
      <point x="35" y="50"/>
      <point x="114" y="-11"/>
    </contour>
  </outline>
</glyph>
<glyph name="N" format="2">
  <advance width="712"/>
  <unicode hex="004E"/>
  <anchor x="446" y="700" name="top"/>
  <anchor x="298" y="0" name="bottom"/>
  <outline>
    <contour>
      <point x="40" y="0" type="line"/>
      <point x="88" y="0" type="line"/>
      <point x="222" y="639" type="line"/>
      <point x="523" y="0" type="line"/>
      <point x="570" y="0" type="line"/>
      <point x="719" y="700" type="line"/>
      <point x="671" y="700" type="line"/>
      <point x="540" y="74" type="line"/>
      <point x="246" y="700" type="line"/>
      <point x="189" y="700" type="line"/>
    </contour>
  </outline>
</glyph>
<glyph name="O" format="2">
  <advance width="793"/>
  <unicode hex="004F"/>
  <guideline x="722" y="378" angle="0.0" identifier="408pZxyHU3"/>
  <anchor x="449" y="700" name="top"/>
  <outline>
    <contour>
      <point x="382" y="-11" type="curve" smooth="yes"/>
      <point x="583" y="-11"/>
      <point x="761" y="169"/>
      <point x="761" y="390" type="curve" smooth="yes"/>
      <point x="761" y="571"/>
      <point x="632" y="711"/>
      <point x="458" y="711" type="curve" smooth="yes"/>
      <point x="257" y="711"/>
      <point x="79" y="531"/>
      <point x="79" y="310" type="curve" smooth="yes"/>
      <point x="79" y="129"/>
      <point x="208" y="-11"/>
    </contour>
    <contour>
      <point x="387" y="37" type="curve" smooth="yes"/>
      <point x="230" y="37"/>
      <point x="130" y="161"/>
      <point x="130" y="309" type="curve" smooth="yes"/>
      <point x="130" y="498"/>
      <point x="277" y="663"/>
      <point x="453" y="663" type="curve" smooth="yes"/>
      <point x="610" y="663"/>
      <point x="710" y="539"/>
      <point x="710" y="391" type="curve" smooth="yes"/>
      <point x="710" y="202"/>
      <point x="563" y="37"/>
    </contour>
  </outline>
</glyph>
<glyph name="P" format="2">
  <advance width="626"/>
  <unicode hex="0050"/>
  <outline>
    <contour>
      <point x="39" y="0" type="line"/>
      <point x="90" y="0" type="line"/>
      <point x="153" y="297" type="line"/>
      <point x="391" y="297" type="line" smooth="yes"/>
      <point x="531" y="297"/>
      <point x="630" y="393"/>
      <point x="630" y="527" type="curve" smooth="yes"/>
      <point x="630" y="635"/>
      <point x="558" y="700"/>
      <point x="441" y="700" type="curve" smooth="yes"/>
      <point x="188" y="700" type="line"/>
    </contour>
    <contour>
      <point x="163" y="344" type="line"/>
      <point x="229" y="653" type="line"/>
      <point x="435" y="653" type="line" smooth="yes"/>
      <point x="525" y="653"/>
      <point x="579" y="605"/>
      <point x="579" y="525" type="curve" smooth="yes"/>
      <point x="579" y="418"/>
      <point x="502" y="344"/>
      <point x="391" y="344" type="curve" smooth="yes"/>
    </contour>
  </outline>
</glyph>
<glyph name="Q" format="2">
  <advance width="792"/>
  <unicode hex="0051"/>
  <outline>
    <contour>
      <point x="606" y="-20" type="line"/>
      <point x="656" y="-16" type="line"/>
      <point x="603" y="67" type="line"/>
      <point x="697" y="140"/>
      <point x="761" y="258"/>
      <point x="761" y="390" type="curve" smooth="yes"/>
      <point x="761" y="571"/>
      <point x="632" y="711"/>
      <point x="458" y="711" type="curve" smooth="yes"/>
      <point x="257" y="711"/>
      <point x="79" y="531"/>
      <point x="79" y="310" type="curve" smooth="yes"/>
      <point x="79" y="129"/>
      <point x="208" y="-11"/>
      <point x="382" y="-11" type="curve" smooth="yes"/>
      <point x="448" y="-11"/>
      <point x="511" y="8"/>
      <point x="567" y="42" type="curve"/>
    </contour>
    <contour>
      <point x="387" y="37" type="curve" smooth="yes"/>
      <point x="230" y="37"/>
      <point x="130" y="161"/>
      <point x="130" y="309" type="curve" smooth="yes"/>
      <point x="130" y="498"/>
      <point x="277" y="663"/>
      <point x="453" y="663" type="curve" smooth="yes"/>
      <point x="610" y="663"/>
      <point x="710" y="539"/>
      <point x="710" y="391" type="curve" smooth="yes"/>
      <point x="710" y="278"/>
      <point x="657" y="173"/>
      <point x="577" y="107" type="curve"/>
      <point x="508" y="216" type="line"/>
      <point x="459" y="212" type="line"/>
      <point x="541" y="82" type="line"/>
      <point x="495" y="53"/>
      <point x="443" y="37"/>
    </contour>
  </outline>
</glyph>
<glyph name="S" format="2">
  <advance width="604"/>
  <unicode hex="0053"/>
  <note>
Version created Fri Aug  3 17:49:29 2018
</note>
  <anchor x="359" y="700" name="top"/>
  <anchor x="298" y="0" name="bottom"/>
  <outline>
    <contour>
      <point x="306" y="-11" type="curve" smooth="yes"/>
      <point x="452" y="-11"/>
      <point x="556" y="76"/>
      <point x="556" y="198" type="curve" smooth="yes"/>
      <point x="556" y="287"/>
      <point x="500" y="342"/>
      <point x="373" y="374" type="curve" smooth="yes"/>
      <point x="275" y="399" type="line" smooth="yes"/>
      <point x="190" y="421"/>
      <point x="150" y="461"/>
      <point x="150" y="525" type="curve" smooth="yes"/>
      <point x="150" y="608"/>
      <point x="223" y="663"/>
      <point x="332" y="663" type="curve" smooth="yes"/>
      <point x="418" y="663"/>
      <point x="506" y="625"/>
      <point x="572" y="561" type="curve"/>
      <point x="606" y="599" type="line"/>
      <point x="529" y="672"/>
      <point x="434" y="711"/>
      <point x="334" y="711" type="curve" smooth="yes"/>
      <point x="193" y="711"/>
      <point x="99" y="636"/>
      <point x="99" y="521" type="curve" smooth="yes"/>
      <point x="99" y="436"/>
      <point x="154" y="378"/>
      <point x="260" y="351" type="curve" smooth="yes"/>
      <point x="358" y="326" type="line" smooth="yes"/>
      <point x="464" y="299"/>
      <point x="505" y="261"/>
      <point x="505" y="194" type="curve" smooth="yes"/>
      <point x="505" y="102"/>
      <point x="422" y="37"/>
      <point x="307" y="37" type="curve" smooth="yes"/>
      <point x="216" y="37"/>
      <point x="118" y="82"/>
      <point x="59" y="171" type="curve"/>
      <point x="22" y="136" type="line"/>
      <point x="91" y="38"/>
      <point x="203" y="-11"/>
    </contour>
  </outline>
</glyph>
<glyph name="V" format="2">
  <advance width="626"/>
  <unicode hex="0056"/>
  <outline>
    <contour>
      <point x="233" y="0" type="line"/>
      <point x="297" y="0" type="line"/>
      <point x="713" y="700" type="line"/>
      <point x="657" y="700" type="line"/>
      <point x="271" y="45" type="line"/>
      <point x="159" y="700" type="line"/>
      <point x="109" y="700" type="line"/>
    </contour>
  </outline>
</glyph>
<glyph name="X" format="2">
  <advance width="615"/>
  <unicode hex="0058"/>
  <outline>
    <contour>
      <point x="-41" y="0" type="line"/>
      <point x="23" y="0" type="line"/>
      <point x="330" y="326" type="line"/>
      <point x="498" y="0" type="line"/>
      <point x="553" y="0" type="line"/>
      <point x="366" y="361" type="line"/>
      <point x="687" y="700" type="line"/>
      <point x="622" y="700" type="line"/>
      <point x="342" y="403" type="line"/>
      <point x="189" y="700" type="line"/>
      <point x="134" y="700" type="line"/>
      <point x="306" y="368" type="line"/>
    </contour>
  </outline>
</glyph>
<glyph name="Y" format="2">
  <advance width="609"/>
  <unicode hex="0059"/>
  <guideline x="546" y="700" angle="0.0" color="0.999,0.001,0.001,0.999" identifier="mZjb9W0mZR"/>
  <anchor x="398" y="700" name="top"/>
  <outline>
    <contour>
      <point x="227" y="0" type="line"/>
      <point x="278" y="0" type="line"/>
      <point x="339" y="288" type="line"/>
      <point x="692" y="700" type="line"/>
      <point x="630" y="700" type="line"/>
      <point x="321" y="336" type="line"/>
      <point x="167" y="700" type="line"/>
      <point x="113" y="700" type="line"/>
      <point x="289" y="291" type="line"/>
    </contour>
  </outline>
</glyph>
<glyph name="Z" format="2">
  <advance width="588"/>
  <unicode hex="005A"/>
  <anchor x="367" y="700" name="top"/>
  <outline>
    <contour>
      <point x="-12" y="0" type="line"/>
      <point x="503" y="0" type="line"/>
      <point x="513" y="47" type="line"/>
      <point x="69" y="47" type="line"/>
      <point x="634" y="661" type="line"/>
      <point x="642" y="700" type="line"/>
      <point x="139" y="700" type="line"/>
      <point x="129" y="653" type="line"/>
      <point x="561" y="653" type="line"/>
      <point x="-4" y="39" type="line"/>
    </contour>
  </outline>
</glyph>
<glyph name="bracketleft" format="2">
  <advance width="338"/>
  <unicode hex="005B"/>
  <outline>
    <contour>
      <point x="-29" y="-215" type="line"/>
      <point x="191" y="-215" type="line"/>
      <point x="200" y="-172" type="line"/>
      <point x="29" y="-172" type="line"/>
      <point x="206" y="657" type="line"/>
      <point x="377" y="657" type="line"/>
      <point x="386" y="700" type="line"/>
      <point x="166" y="700" type="line"/>
    </contour>
  </outline>
</glyph>
<glyph name="backslash" format="2">
  <advance width="384"/>
  <unicode hex="005C"/>
  <outline>
    <contour>
      <point x="315" y="-209" type="line"/>
      <point x="363" y="-209" type="line"/>
      <point x="163" y="700" type="line"/>
      <point x="115" y="700" type="line"/>
    </contour>
  </outline>
</glyph>
<glyph name="bracketright" format="2">
  <advance width="338"/>
  <unicode hex="005D"/>
  <outline>
    <contour>
      <point x="386" y="700" type="line"/>
      <point x="166" y="700" type="line"/>
      <point x="157" y="657" type="line"/>
      <point x="328" y="657" type="line"/>
      <point x="151" y="-172" type="line"/>
      <point x="-20" y="-172" type="line"/>
      <point x="-29" y="-215" type="line"/>
      <point x="191" y="-215" type="line"/>
    </contour>
  </outline>
</glyph>
<glyph name="underscore" format="2">
  <advance width="443"/>
  <unicode hex="005F"/>
  <outline>
    <contour>
      <point x="-78" y="-123" type="line"/>
      <point x="367" y="-123" type="line"/>
      <point x="376" y="-80" type="line"/>
      <point x="-69" y="-80" type="line"/>
    </contour>
  </outline>
</glyph>
<glyph name="a" format="2">
  <advance width="502"/>
  <unicode hex="0061"/>
  <note>
Version created Mon Aug  6 16:22:34 2018
</note>
  <anchor x="295" y="481" name="top"/>
  <anchor x="380" y="0" name="bottom"/>
  <outline>
    <contour>
      <point x="197" y="-10" type="curve" smooth="yes"/>
      <point x="250" y="-10"/>
      <point x="298" y="10"/>
      <point x="342" y="46" type="curve"/>
      <point x="332" y="0" type="line"/>
      <point x="380" y="0" type="line"/>
      <point x="448" y="305" type="line" smooth="yes"/>
      <point x="476" y="429"/>
      <point x="402" y="489"/>
      <point x="287" y="489" type="curve" smooth="yes"/>
      <point x="237" y="489"/>
      <point x="186" y="477"/>
      <point x="123" y="448" type="curve"/>
      <point x="141" y="408" type="line"/>
      <point x="199" y="434"/>
      <point x="243" y="447"/>
      <point x="284" y="447" type="curve" smooth="yes"/>
      <point x="388" y="447"/>
      <point x="419" y="392"/>
      <point x="398" y="296" type="curve" smooth="yes"/>
      <point x="383" y="228" type="line"/>
      <point x="344" y="264"/>
      <point x="283" y="282"/>
      <point x="215" y="282" type="curve" smooth="yes"/>
      <point x="110" y="282"/>
      <point x="35" y="219"/>
      <point x="35" y="130" type="curve" smooth="yes"/>
      <point x="35" y="47"/>
      <point x="101" y="-10"/>
    </contour>
    <contour>
      <point x="206" y="32" type="curve" smooth="yes"/>
      <point x="123" y="32"/>
      <point x="82" y="74"/>
      <point x="82" y="135" type="curve" smooth="yes"/>
      <point x="82" y="195"/>
      <point x="141" y="240"/>
      <point x="219" y="240" type="curve" smooth="yes"/>
      <point x="288" y="240"/>
      <point x="335" y="224"/>
      <point x="374" y="189" type="curve"/>
      <point x="352" y="91" type="line"/>
      <point x="308" y="53"/>
      <point x="262" y="32"/>
    </contour>
  </outline>
</glyph>
<glyph name="c" format="2">
  <advance width="489"/>
  <unicode hex="0063"/>
  <anchor x="315" y="481" name="top"/>
  <anchor x="245" y="0" name="bottom"/>
  <outline>
    <contour>
      <point x="258" y="-11" type="curve" smooth="yes"/>
      <point x="318" y="-11"/>
      <point x="379" y="11"/>
      <point x="429" y="50" type="curve"/>
      <point x="402" y="88" type="line"/>
      <point x="359" y="55"/>
      <point x="310" y="35"/>
      <point x="263" y="35" type="curve" smooth="yes"/>
      <point x="177" y="35"/>
      <point x="103" y="101"/>
      <point x="103" y="199" type="curve" smooth="yes"/>
      <point x="103" y="332"/>
      <point x="196" y="443"/>
      <point x="308" y="443" type="curve" smooth="yes"/>
      <point x="368" y="443"/>
      <point x="416" y="413"/>
      <point x="450" y="365" type="curve"/>
      <point x="485" y="396" type="line"/>
      <point x="443" y="454"/>
      <point x="381" y="489"/>
      <point x="309" y="489" type="curve" smooth="yes"/>
      <point x="170" y="489"/>
      <point x="54" y="358"/>
      <point x="54" y="200" type="curve" smooth="yes"/>
      <point x="54" y="75"/>
      <point x="145" y="-11"/>
    </contour>
  </outline>
</glyph>
<glyph name="e" format="2">
  <advance width="536"/>
  <unicode hex="0065"/>
  <anchor x="298" y="481" name="top"/>
  <anchor x="330" y="0" name="bottom"/>
  <outline>
    <contour>
      <point x="260" y="-10" type="curve" smooth="yes"/>
      <point x="315" y="-10"/>
      <point x="371" y="8"/>
      <point x="424" y="43" type="curve"/>
      <point x="398" y="81" type="line"/>
      <point x="352" y="51"/>
      <point x="304" y="36"/>
      <point x="261" y="36" type="curve" smooth="yes"/>
      <point x="159" y="36"/>
      <point x="92" y="118"/>
      <point x="106" y="231" type="curve"/>
      <point x="487" y="231" type="line"/>
      <point x="490" y="253"/>
      <point x="491" y="274"/>
      <point x="491" y="295" type="curve" smooth="yes"/>
      <point x="491" y="408"/>
      <point x="417" y="489"/>
      <point x="312" y="489" type="curve" smooth="yes"/>
      <point x="172" y="489"/>
      <point x="55" y="358"/>
      <point x="55" y="201" type="curve" smooth="yes"/>
      <point x="55" y="80"/>
      <point x="142" y="-10"/>
    </contour>
    <contour>
      <point x="114" y="272" type="line"/>
      <point x="141" y="371"/>
      <point x="221" y="443"/>
      <point x="309" y="443" type="curve" smooth="yes"/>
      <point x="398" y="443"/>
      <point x="451" y="368"/>
      <point x="442" y="272" type="curve"/>
    </contour>
  </outline>
</glyph>
<glyph name="f" format="2">
  <advance width="339"/>
  <unicode hex="0066"/>
  <outline>
    <contour>
      <point x="82" y="0" type="line"/>
      <point x="131" y="0" type="line"/>
      <point x="224" y="438" type="line"/>
      <point x="365" y="438" type="line"/>
      <point x="374" y="481" type="line"/>
      <point x="233" y="481" type="line"/>
      <point x="259" y="603" type="line" smooth="yes"/>
      <point x="272" y="664"/>
      <point x="297" y="691"/>
      <point x="352" y="691" type="curve" smooth="yes"/>
      <point x="376" y="691"/>
      <point x="393" y="687"/>
      <point x="416" y="677" type="curve"/>
      <point x="425" y="724" type="line"/>
      <point x="402" y="733"/>
      <point x="378" y="737"/>
      <point x="352" y="737" type="curve" smooth="yes"/>
      <point x="274" y="737"/>
      <point x="230" y="696"/>
      <point x="211" y="607" type="curve" smooth="yes"/>
      <point x="184" y="481" type="line"/>
      <point x="80" y="481" type="line"/>
      <point x="71" y="438" type="line"/>
      <point x="175" y="438" type="line"/>
    </contour>
  </outline>
</glyph>
<glyph name="i" format="2">
  <advance width="204"/>
  <unicode hex="0069"/>
  <anchor x="156" y="481" name="top"/>
  <anchor x="75" y="0" name="bottom"/>
  <outline>
    <contour>
      <point x="184" y="607" type="curve" smooth="yes"/>
      <point x="212" y="607"/>
      <point x="234" y="629"/>
      <point x="234" y="657" type="curve" smooth="yes"/>
      <point x="234" y="681"/>
      <point x="216" y="700"/>
      <point x="193" y="700" type="curve" smooth="yes"/>
      <point x="165" y="700"/>
      <point x="143" y="678"/>
      <point x="143" y="650" type="curve" smooth="yes"/>
      <point x="143" y="626"/>
      <point x="161" y="607"/>
    </contour>
    <contour>
      <point x="26" y="0" type="line"/>
      <point x="75" y="0" type="line"/>
      <point x="178" y="481" type="line"/>
      <point x="129" y="481" type="line"/>
    </contour>
  </outline>
</glyph>
<glyph name="j" format="2">
  <advance width="204"/>
  <unicode hex="006A"/>
  <outline>
    <contour>
      <point x="184" y="607" type="curve" smooth="yes"/>
      <point x="210" y="607"/>
      <point x="234" y="631"/>
      <point x="234" y="657" type="curve" smooth="yes"/>
      <point x="234" y="682"/>
      <point x="216" y="700"/>
      <point x="193" y="700" type="curve" smooth="yes"/>
      <point x="167" y="700"/>
      <point x="143" y="676"/>
      <point x="143" y="650" type="curve" smooth="yes"/>
      <point x="143" y="625"/>
      <point x="161" y="607"/>
    </contour>
    <contour>
      <point x="-71" y="-219" type="curve" smooth="yes"/>
      <point x="1" y="-219"/>
      <point x="35" y="-186"/>
      <point x="51" y="-110" type="curve" smooth="yes"/>
      <point x="178" y="481" type="line"/>
      <point x="129" y="481" type="line"/>
      <point x="4" y="-105" type="line" smooth="yes"/>
      <point x="-6" y="-153"/>
      <point x="-26" y="-173"/>
      <point x="-65" y="-173" type="curve" smooth="yes"/>
      <point x="-77" y="-173"/>
      <point x="-90" y="-171"/>
      <point x="-102" y="-166" type="curve"/>
      <point x="-112" y="-213" type="line"/>
      <point x="-100" y="-217"/>
      <point x="-84" y="-219"/>
    </contour>
  </outline>
</glyph>
<glyph name="k" format="2">
  <advance width="451"/>
  <unicode hex="006B"/>
  <anchor x="197" y="0" name="bottom"/>
  <outline>
    <contour>
      <point x="27" y="0" type="line"/>
      <point x="76" y="0" type="line"/>
      <point x="126" y="238" type="line"/>
      <point x="328" y="0" type="line"/>
      <point x="387" y="0" type="line"/>
      <point x="175" y="249" type="line"/>
      <point x="490" y="481" type="line"/>
      <point x="418" y="481" type="line"/>
      <point x="132" y="267" type="line"/>
      <point x="230" y="737" type="line"/>
      <point x="179" y="725" type="line"/>
    </contour>
  </outline>
</glyph>
<glyph name="l" format="2">
  <advance width="204"/>
  <unicode hex="006C"/>
  <anchor x="200" y="680" name="top"/>
  <anchor x="51" y="0" name="bottom"/>
  <outline>
    <contour>
      <point x="27" y="0" type="line"/>
      <point x="76" y="0" type="line"/>
      <point x="230" y="737" type="line"/>
      <point x="179" y="725" type="line"/>
    </contour>
  </outline>
</glyph>
<glyph name="m" format="2">
  <advance width="811"/>
  <unicode hex="006D"/>
  <outline>
    <contour>
      <point x="27" y="0" type="line"/>
      <point x="76" y="0" type="line"/>
      <point x="154" y="362" type="line"/>
      <point x="192" y="416"/>
      <point x="243" y="445"/>
      <point x="298" y="445" type="curve" smooth="yes"/>
      <point x="373" y="445"/>
      <point x="415" y="382"/>
      <point x="394" y="286" type="curve" smooth="yes"/>
      <point x="332" y="0" type="line"/>
      <point x="381" y="0" type="line"/>
      <point x="446" y="299" type="line" smooth="yes"/>
      <point x="450" y="318"/>
      <point x="452" y="337"/>
      <point x="451" y="354" type="curve"/>
      <point x="497" y="412"/>
      <point x="546" y="445"/>
      <point x="604" y="445" type="curve" smooth="yes"/>
      <point x="680" y="445"/>
      <point x="720" y="382"/>
      <point x="701" y="295" type="curve" smooth="yes"/>
      <point x="637" y="0" type="line"/>
      <point x="686" y="0" type="line"/>
      <point x="751" y="299" type="line" smooth="yes"/>
      <point x="775" y="411"/>
      <point x="715" y="489"/>
      <point x="618" y="489" type="curve" smooth="yes"/>
      <point x="557" y="489"/>
      <point x="501" y="458"/>
      <point x="445" y="392" type="curve"/>
      <point x="428" y="452"/>
      <point x="379" y="489"/>
      <point x="311" y="489" type="curve" smooth="yes"/>
      <point x="255" y="489"/>
      <point x="207" y="461"/>
      <point x="164" y="410" type="curve"/>
      <point x="179" y="481" type="line"/>
      <point x="130" y="481" type="line"/>
    </contour>
  </outline>
</glyph>
<glyph name="p" format="2">
  <advance width="555"/>
  <unicode hex="0070"/>
  <outline>
    <contour>
      <point x="-16" y="-209" type="line"/>
      <point x="33" y="-209" type="line"/>
      <point x="94" y="74" type="line"/>
      <point x="128" y="21"/>
      <point x="184" y="-8"/>
      <point x="253" y="-8" type="curve" smooth="yes"/>
      <point x="390" y="-8"/>
      <point x="503" y="117"/>
      <point x="503" y="269" type="curve" smooth="yes"/>
      <point x="503" y="395"/>
      <point x="421" y="487"/>
      <point x="308" y="487" type="curve" smooth="yes"/>
      <point x="256" y="487"/>
      <point x="209" y="468"/>
      <point x="169" y="432" type="curve"/>
      <point x="180" y="481" type="line"/>
      <point x="132" y="481" type="line"/>
    </contour>
    <contour>
      <point x="294" y="441" type="curve" smooth="yes"/>
      <point x="389" y="441"/>
      <point x="454" y="369"/>
      <point x="454" y="265" type="curve" smooth="yes"/>
      <point x="454" y="139"/>
      <point x="363" y="38"/>
      <point x="248" y="38" type="curve" smooth="yes"/>
      <point x="186" y="38"/>
      <point x="129" y="72"/>
      <point x="104" y="122" type="curve"/>
      <point x="161" y="388" type="line"/>
      <point x="197" y="422"/>
      <point x="244" y="441"/>
    </contour>
  </outline>
</glyph>
<glyph name="u" format="2">
  <advance width="524"/>
  <unicode hex="0075"/>
  <anchor x="305" y="481" name="top"/>
  <anchor x="394" y="0" name="bottom"/>
  <outline>
    <contour>
      <point x="211" y="-8" type="curve" smooth="yes"/>
      <point x="269" y="-8"/>
      <point x="317" y="18"/>
      <point x="359" y="66" type="curve"/>
      <point x="345" y="0" type="line"/>
      <point x="394" y="0" type="line"/>
      <point x="497" y="481" type="line"/>
      <point x="448" y="481" type="line"/>
      <point x="369" y="111" type="line"/>
      <point x="330" y="63"/>
      <point x="279" y="36"/>
      <point x="224" y="36" type="curve" smooth="yes"/>
      <point x="137" y="36"/>
      <point x="91" y="100"/>
      <point x="113" y="199" type="curve" smooth="yes"/>
      <point x="175" y="481" type="line"/>
      <point x="126" y="481" type="line"/>
      <point x="63" y="191" type="line" smooth="yes"/>
      <point x="37" y="72"/>
      <point x="104" y="-8"/>
    </contour>
  </outline>
</glyph>
<glyph name="y" format="2">
  <advance width="467"/>
  <unicode hex="0079"/>
  <anchor x="275" y="481" name="top"/>
  <outline>
    <contour>
      <point x="6" y="-219" type="curve" smooth="yes"/>
      <point x="65" y="-219"/>
      <point x="103" y="-194"/>
      <point x="141" y="-129" type="curve" smooth="yes"/>
      <point x="502" y="481" type="line"/>
      <point x="445" y="481" type="line"/>
      <point x="197" y="62" type="line"/>
      <point x="124" y="481" type="line"/>
      <point x="72" y="481" type="line"/>
      <point x="159" y="-4" type="line"/>
      <point x="97" y="-110" type="line" smooth="yes"/>
      <point x="72" y="-153"/>
      <point x="43" y="-173"/>
      <point x="8" y="-173" type="curve" smooth="yes"/>
      <point x="-2" y="-173"/>
      <point x="-15" y="-170"/>
      <point x="-31" y="-165" type="curve"/>
      <point x="-40" y="-210" type="line"/>
      <point x="-18" y="-217"/>
      <point x="-5" y="-219"/>
    </contour>
  </outline>
</glyph>
<glyph name="bar" format="2">
  <advance width="268"/>
  <unicode hex="007C"/>
  <outline>
    <contour>
      <point x="16" y="-209" type="line"/>
      <point x="62" y="-209" type="line"/>
      <point x="255" y="700" type="line"/>
      <point x="209" y="700" type="line"/>
    </contour>
  </outline>
</glyph>
<glyph name="exclamdown" format="2">
  <advance width="201"/>
  <unicode hex="00A1"/>
  <outline>
    <contour>
      <point x="133" y="293" type="line"/>
      <point x="92" y="293" type="line"/>
      <point x="-25" y="-218" type="line"/>
      <point x="28" y="-218" type="line"/>
    </contour>
    <contour>
      <point x="153" y="500" type="curve" smooth="yes"/>
      <point x="123" y="500"/>
      <point x="98" y="477"/>
      <point x="98" y="448" type="curve" smooth="yes"/>
      <point x="98" y="425"/>
      <point x="115" y="407"/>
      <point x="137" y="407" type="curve" smooth="yes"/>
      <point x="167" y="407"/>
      <point x="192" y="430"/>
      <point x="192" y="459" type="curve" smooth="yes"/>
      <point x="192" y="482"/>
      <point x="175" y="500"/>
    </contour>
  </outline>
</glyph>
<glyph name="sterling" format="2">
  <advance width="593"/>
  <unicode hex="00A3"/>
  <outline>
    <contour>
      <point x="-4" y="-25" type="line"/>
      <point x="44" y="41"/>
      <point x="95" y="56"/>
      <point x="184" y="29" type="curve" smooth="yes"/>
      <point x="303" y="-7" type="line" smooth="yes"/>
      <point x="414" y="-40"/>
      <point x="474" y="-28"/>
      <point x="536" y="42" type="curve"/>
      <point x="502" y="73" type="line"/>
      <point x="460" y="19"/>
      <point x="411" y="10"/>
      <point x="314" y="39" type="curve" smooth="yes"/>
      <point x="194" y="74" type="line" smooth="yes"/>
      <point x="183" y="77"/>
      <point x="173" y="80"/>
      <point x="163" y="82" type="curve"/>
      <point x="191" y="102"/>
      <point x="210" y="144"/>
      <point x="213" y="196" type="curve" smooth="yes"/>
      <point x="219" y="294" type="line"/>
      <point x="414" y="294" type="line"/>
      <point x="424" y="338" type="line"/>
      <point x="221" y="338" type="line"/>
      <point x="228" y="458" type="line" smooth="yes"/>
      <point x="236" y="592"/>
      <point x="291" y="665"/>
      <point x="384" y="665" type="curve" smooth="yes"/>
      <point x="478" y="665"/>
      <point x="530" y="612"/>
      <point x="533" y="511" type="curve"/>
      <point x="580" y="519" type="line"/>
      <point x="574" y="643"/>
      <point x="505" y="711"/>
      <point x="385" y="711" type="curve" smooth="yes"/>
      <point x="264" y="711"/>
      <point x="189" y="619"/>
      <point x="180" y="460" type="curve" smooth="yes"/>
      <point x="173" y="338" type="line"/>
      <point x="79" y="338" type="line"/>
      <point x="69" y="294" type="line"/>
      <point x="170" y="294" type="line"/>
      <point x="164" y="190" type="line" smooth="yes"/>
      <point x="160" y="133"/>
      <point x="137" y="97"/>
      <point x="98" y="87" type="curve"/>
      <point x="42" y="83"/>
      <point x="-2" y="55"/>
      <point x="-36" y="4" type="curve"/>
    </contour>
  </outline>
</glyph>
<glyph name="yen" format="2">
  <advance width="609"/>
  <unicode hex="00A5"/>
  <outline>
    <contour>
      <point x="227" y="0" type="line"/>
      <point x="278" y="0" type="line"/>
      <point x="307" y="138" type="line"/>
      <point x="485" y="138" type="line"/>
      <point x="494" y="182" type="line"/>
      <point x="317" y="182" type="line"/>
      <point x="334" y="266" type="line"/>
      <point x="512" y="266" type="line"/>
      <point x="521" y="310" type="line"/>
      <point x="358" y="310" type="line"/>
      <point x="692" y="700" type="line"/>
      <point x="630" y="700" type="line"/>
      <point x="321" y="336" type="line"/>
      <point x="167" y="700" type="line"/>
      <point x="113" y="700" type="line"/>
      <point x="281" y="310" type="line"/>
      <point x="115" y="310" type="line"/>
      <point x="106" y="266" type="line"/>
      <point x="284" y="266" type="line"/>
      <point x="266" y="182" type="line"/>
      <point x="88" y="182" type="line"/>
      <point x="79" y="138" type="line"/>
      <point x="256" y="138" type="line"/>
    </contour>
  </outline>
</glyph>
<glyph name="uni00A6" format="2">
  <advance width="270"/>
  <unicode hex="00A6"/>
  <outline>
    <contour>
      <point x="121" y="288" type="line"/>
      <point x="167" y="288" type="line"/>
      <point x="255" y="700" type="line"/>
      <point x="209" y="700" type="line"/>
    </contour>
    <contour>
      <point x="16" y="-209" type="line"/>
      <point x="62" y="-209" type="line"/>
      <point x="150" y="203" type="line"/>
      <point x="104" y="203" type="line"/>
    </contour>
  </outline>
</glyph>
<glyph name="section" format="2">
  <advance width="551"/>
  <unicode hex="00A7"/>
  <outline>
    <contour>
      <point x="246" y="-49" type="curve" smooth="yes"/>
      <point x="338" y="-49"/>
      <point x="399" y="7"/>
      <point x="399" y="90" type="curve" smooth="yes"/>
      <point x="399" y="129"/>
      <point x="383" y="161"/>
      <point x="350" y="186" type="curve"/>
      <point x="439" y="198"/>
      <point x="491" y="245"/>
      <point x="491" y="316" type="curve" smooth="yes"/>
      <point x="491" y="374"/>
      <point x="462" y="413"/>
      <point x="391" y="448" type="curve" smooth="yes"/>
      <point x="296" y="495" type="line" smooth="yes"/>
      <point x="257" y="515"/>
      <point x="237" y="542"/>
      <point x="237" y="577" type="curve" smooth="yes"/>
      <point x="237" y="630"/>
      <point x="277" y="665"/>
      <point x="339" y="665" type="curve" smooth="yes"/>
      <point x="390" y="665"/>
      <point x="441" y="646"/>
      <point x="492" y="609" type="curve"/>
      <point x="519" y="647" type="line"/>
      <point x="468" y="687"/>
      <point x="402" y="711"/>
      <point x="345" y="711" type="curve" smooth="yes"/>
      <point x="253" y="711"/>
      <point x="191" y="655"/>
      <point x="191" y="572" type="curve" smooth="yes"/>
      <point x="191" y="531"/>
      <point x="208" y="499"/>
      <point x="242" y="473" type="curve"/>
      <point x="152" y="462"/>
      <point x="100" y="416"/>
      <point x="100" y="346" type="curve" smooth="yes"/>
      <point x="100" y="288"/>
      <point x="128" y="251"/>
      <point x="200" y="215" type="curve" smooth="yes"/>
      <point x="295" y="168" type="line" smooth="yes"/>
      <point x="333" y="149"/>
      <point x="353" y="120"/>
      <point x="353" y="84" type="curve" smooth="yes"/>
      <point x="353" y="31"/>
      <point x="314" y="-3"/>
      <point x="252" y="-3" type="curve" smooth="yes"/>
      <point x="200" y="-3"/>
      <point x="149" y="16"/>
      <point x="98" y="53" type="curve"/>
      <point x="70" y="15" type="line"/>
      <point x="120" y="-25"/>
      <point x="185" y="-49"/>
    </contour>
    <contour>
      <point x="302" y="214" type="curve"/>
      <point x="220" y="256" type="line" smooth="yes"/>
      <point x="169" y="282"/>
      <point x="146" y="310"/>
      <point x="146" y="347" type="curve" smooth="yes"/>
      <point x="146" y="406"/>
      <point x="200" y="441"/>
      <point x="296" y="444" type="curve"/>
      <point x="371" y="408" type="line" smooth="yes"/>
      <point x="420" y="385"/>
      <point x="445" y="354"/>
      <point x="445" y="316" type="curve" smooth="yes"/>
      <point x="445" y="255"/>
      <point x="393" y="219"/>
    </contour>
  </outline>
</glyph>
<glyph name="copyright" format="2">
  <advance width="790"/>
  <unicode hex="00A9"/>
  <outline>
    <contour>
      <point x="409" y="167" type="curve" smooth="yes"/>
      <point x="450" y="167"/>
      <point x="492" y="182"/>
      <point x="528" y="209" type="curve"/>
      <point x="509" y="245" type="line"/>
      <point x="477" y="220"/>
      <point x="444" y="207"/>
      <point x="412" y="207" type="curve" smooth="yes"/>
      <point x="351" y="207"/>
      <point x="299" y="253"/>
      <point x="299" y="331" type="curve" smooth="yes"/>
      <point x="299" y="417"/>
      <point x="365" y="493"/>
      <point x="444" y="493" type="curve" smooth="yes"/>
      <point x="487" y="493"/>
      <point x="527" y="470"/>
      <point x="549" y="435" type="curve"/>
      <point x="580" y="461" type="line"/>
      <point x="551" y="505"/>
      <point x="498" y="533"/>
      <point x="445" y="533" type="curve" smooth="yes"/>
      <point x="347" y="533"/>
      <point x="258" y="444"/>
      <point x="258" y="331" type="curve" smooth="yes"/>
      <point x="258" y="241"/>
      <point x="318" y="167"/>
    </contour>
    <contour>
      <point x="392" y="-11" type="curve" smooth="yes"/>
      <point x="587" y="-11"/>
      <point x="760" y="165"/>
      <point x="760" y="387" type="curve" smooth="yes"/>
      <point x="760" y="573"/>
      <point x="624" y="711"/>
      <point x="446" y="711" type="curve" smooth="yes"/>
      <point x="251" y="711"/>
      <point x="78" y="535"/>
      <point x="78" y="313" type="curve" smooth="yes"/>
      <point x="78" y="127"/>
      <point x="214" y="-11"/>
    </contour>
    <contour>
      <point x="392" y="26" type="curve" smooth="yes"/>
      <point x="234" y="26"/>
      <point x="118" y="151"/>
      <point x="118" y="316" type="curve" smooth="yes"/>
      <point x="118" y="508"/>
      <point x="268" y="674"/>
      <point x="446" y="674" type="curve" smooth="yes"/>
      <point x="604" y="674"/>
      <point x="720" y="549"/>
      <point x="720" y="384" type="curve" smooth="yes"/>
      <point x="720" y="192"/>
      <point x="570" y="26"/>
    </contour>
  </outline>
</glyph>
<glyph name="registered" format="2">
  <advance width="486"/>
  <unicode hex="00AE"/>
  <outline>
    <contour>
      <point x="282" y="313" type="curve" smooth="yes"/>
      <point x="394" y="313"/>
      <point x="487" y="412"/>
      <point x="487" y="535" type="curve"/>
      <point x="487" y="636"/>
      <point x="419" y="711"/>
      <point x="320" y="711" type="curve" smooth="yes"/>
      <point x="208" y="711"/>
      <point x="115" y="612"/>
      <point x="115" y="490" type="curve"/>
      <point x="115" y="388"/>
      <point x="183" y="313"/>
    </contour>
    <contour>
      <point x="283" y="343" type="curve" smooth="yes"/>
      <point x="200" y="343"/>
      <point x="146" y="401"/>
      <point x="146" y="490" type="curve"/>
      <point x="146" y="595"/>
      <point x="225" y="681"/>
      <point x="319" y="681" type="curve" smooth="yes"/>
      <point x="402" y="681"/>
      <point x="456" y="623"/>
      <point x="456" y="535" type="curve"/>
      <point x="456" y="429"/>
      <point x="377" y="343"/>
    </contour>
    <contour>
      <point x="219" y="419" type="line"/>
      <point x="247" y="419" type="line"/>
      <point x="262" y="491" type="line"/>
      <point x="299" y="491" type="line"/>
      <point x="325" y="419" type="line"/>
      <point x="355" y="419" type="line"/>
      <point x="329" y="494" type="line"/>
      <point x="355" y="504"/>
      <point x="373" y="528"/>
      <point x="373" y="554" type="curve" smooth="yes"/>
      <point x="373" y="588"/>
      <point x="354" y="607"/>
      <point x="320" y="607" type="curve" smooth="yes"/>
      <point x="259" y="607" type="line"/>
    </contour>
    <contour>
      <point x="268" y="515" type="line"/>
      <point x="283" y="582" type="line"/>
      <point x="315" y="582" type="line" smooth="yes"/>
      <point x="336" y="582"/>
      <point x="344" y="572"/>
      <point x="344" y="552" type="curve" smooth="yes"/>
      <point x="344" y="529"/>
      <point x="330" y="515"/>
      <point x="308" y="515" type="curve" smooth="yes"/>
    </contour>
  </outline>
</glyph>
<glyph name="macron" format="2">
  <advance width="600"/>
  <unicode hex="00AF"/>
  <outline>
    <contour>
      <point x="252" y="607" type="line"/>
      <point x="505" y="607" type="line"/>
      <point x="513" y="647" type="line"/>
      <point x="260" y="647" type="line"/>
    </contour>
  </outline>
</glyph>
<glyph name="degree" format="2">
  <advance width="399"/>
  <unicode hex="00B0"/>
  <outline>
    <contour>
      <point x="257" y="431" type="curve" smooth="yes"/>
      <point x="340" y="431"/>
      <point x="410" y="502"/>
      <point x="410" y="584" type="curve" smooth="yes"/>
      <point x="410" y="652"/>
      <point x="356" y="711"/>
      <point x="283" y="711" type="curve" smooth="yes"/>
      <point x="200" y="711"/>
      <point x="130" y="640"/>
      <point x="130" y="558" type="curve" smooth="yes"/>
      <point x="130" y="490"/>
      <point x="184" y="431"/>
    </contour>
    <contour>
      <point x="259" y="471" type="curve" smooth="yes"/>
      <point x="210" y="471"/>
      <point x="171" y="510"/>
      <point x="171" y="561" type="curve" smooth="yes"/>
      <point x="171" y="620"/>
      <point x="224" y="671"/>
      <point x="281" y="671" type="curve" smooth="yes"/>
      <point x="330" y="671"/>
      <point x="369" y="632"/>
      <point x="369" y="581" type="curve" smooth="yes"/>
      <point x="369" y="522"/>
      <point x="316" y="471"/>
    </contour>
  </outline>
</glyph>
<glyph name="plusminus" format="2">
  <advance width="599"/>
  <unicode hex="00B1"/>
  <outline>
    <contour>
      <point x="80" y="-1" type="line"/>
      <point x="461" y="-1" type="line"/>
      <point x="471" y="44" type="line"/>
      <point x="90" y="44" type="line"/>
    </contour>
    <contour>
      <point x="284" y="165" type="line"/>
      <point x="329" y="165" type="line"/>
      <point x="368" y="347" type="line"/>
      <point x="535" y="347" type="line"/>
      <point x="545" y="392" type="line"/>
      <point x="377" y="392" type="line"/>
      <point x="416" y="574" type="line"/>
      <point x="371" y="574" type="line"/>
      <point x="332" y="392" type="line"/>
      <point x="164" y="392" type="line"/>
      <point x="154" y="347" type="line"/>
      <point x="323" y="347" type="line"/>
    </contour>
  </outline>
</glyph>
<glyph name="twosuperior" format="2">
  <advance width="280"/>
  <unicode hex="00B2"/>
  <outline>
    <contour>
      <point x="49" y="350" type="line"/>
      <point x="282" y="350" type="line"/>
      <point x="289" y="385" type="line"/>
      <point x="110" y="385" type="line"/>
      <point x="260" y="504" type="line" smooth="yes"/>
      <point x="310" y="544"/>
      <point x="331" y="575"/>
      <point x="331" y="618" type="curve" smooth="yes"/>
      <point x="331" y="669"/>
      <point x="285" y="705"/>
      <point x="226" y="705" type="curve" smooth="yes"/>
      <point x="187" y="705"/>
      <point x="148" y="690"/>
      <point x="105" y="661" type="curve"/>
      <point x="126" y="631" type="line"/>
      <point x="164" y="658"/>
      <point x="191" y="670"/>
      <point x="222" y="670" type="curve" smooth="yes"/>
      <point x="264" y="670"/>
      <point x="292" y="647"/>
      <point x="292" y="611" type="curve" smooth="yes"/>
      <point x="292" y="581"/>
      <point x="274" y="555"/>
      <point x="237" y="525" type="curve" smooth="yes"/>
      <point x="55" y="380" type="line"/>
    </contour>
  </outline>
</glyph>
<glyph name="acute" format="2">
  <advance width="600"/>
  <unicode hex="00B4"/>
  <outline>
    <contour>
      <point x="332" y="579" type="line"/>
      <point x="382" y="579" type="line"/>
      <point x="534" y="695" type="line"/>
      <point x="458" y="695" type="line"/>
    </contour>
  </outline>
</glyph>
<glyph name="paragraph" format="2">
  <advance width="621"/>
  <unicode hex="00B6"/>
  <outline>
    <contour>
      <point x="257" y="0" type="line"/>
      <point x="308" y="0" type="line"/>
      <point x="372" y="302" type="line"/>
      <point x="492" y="302" type="line"/>
      <point x="428" y="0" type="line"/>
      <point x="479" y="0" type="line"/>
      <point x="628" y="700" type="line"/>
      <point x="339" y="700" type="line" smooth="yes"/>
      <point x="187" y="700"/>
      <point x="102" y="608"/>
      <point x="102" y="477" type="curve" smooth="yes"/>
      <point x="102" y="373"/>
      <point x="173" y="302"/>
      <point x="299" y="302" type="curve" smooth="yes"/>
      <point x="321" y="302" type="line"/>
    </contour>
    <contour>
      <point x="382" y="349" type="line"/>
      <point x="447" y="653" type="line"/>
      <point x="567" y="653" type="line"/>
      <point x="502" y="349" type="line"/>
    </contour>
    <contour>
      <point x="286" y="349" type="line" smooth="yes"/>
      <point x="203" y="349"/>
      <point x="153" y="399"/>
      <point x="153" y="481" type="curve" smooth="yes"/>
      <point x="153" y="582"/>
      <point x="221" y="653"/>
      <point x="324" y="653" type="curve" smooth="yes"/>
      <point x="396" y="653" type="line"/>
      <point x="331" y="349" type="line"/>
    </contour>
  </outline>
</glyph>
<glyph name="periodcentered" format="2">
  <advance width="250"/>
  <unicode hex="00B7"/>
  <outline>
    <contour>
      <point x="128" y="237" type="curve" smooth="yes"/>
      <point x="158" y="237"/>
      <point x="183" y="260"/>
      <point x="183" y="289" type="curve" smooth="yes"/>
      <point x="183" y="312"/>
      <point x="166" y="330"/>
      <point x="144" y="330" type="curve" smooth="yes"/>
      <point x="114" y="330"/>
      <point x="89" y="307"/>
      <point x="89" y="278" type="curve" smooth="yes"/>
      <point x="89" y="255"/>
      <point x="106" y="237"/>
    </contour>
  </outline>
</glyph>
<glyph name="ordmasculine" format="2">
  <advance width="448"/>
  <unicode hex="00BA"/>
  <outline>
    <contour>
      <point x="266" y="323" type="curve" smooth="yes"/>
      <point x="376" y="323"/>
      <point x="472" y="423"/>
      <point x="472" y="540" type="curve" smooth="yes"/>
      <point x="472" y="638"/>
      <point x="397" y="711"/>
      <point x="299" y="711" type="curve" smooth="yes"/>
      <point x="189" y="711"/>
      <point x="94" y="611"/>
      <point x="94" y="494" type="curve" smooth="yes"/>
      <point x="94" y="396"/>
      <point x="168" y="323"/>
    </contour>
    <contour>
      <point x="266" y="364" type="curve" smooth="yes"/>
      <point x="193" y="364"/>
      <point x="140" y="422"/>
      <point x="140" y="499" type="curve" smooth="yes"/>
      <point x="140" y="583"/>
      <point x="205" y="670"/>
      <point x="300" y="670" type="curve" smooth="yes"/>
      <point x="373" y="670"/>
      <point x="426" y="612"/>
      <point x="426" y="535" type="curve" smooth="yes"/>
      <point x="426" y="451"/>
      <point x="361" y="364"/>
    </contour>
  </outline>
</glyph>
<glyph name="guillemotright" format="2">
  <advance width="584"/>
  <unicode hex="00BB"/>
  <outline>
    <contour>
      <point x="381" y="481" type="line"/>
      <point x="328" y="481" type="line"/>
      <point x="490" y="245" type="line"/>
      <point x="225" y="0" type="line"/>
      <point x="288" y="0" type="line"/>
      <point x="550" y="240" type="line"/>
    </contour>
    <contour>
      <point x="175" y="481" type="line"/>
      <point x="122" y="481" type="line"/>
      <point x="284" y="245" type="line"/>
      <point x="19" y="0" type="line"/>
      <point x="82" y="0" type="line"/>
      <point x="344" y="240" type="line"/>
    </contour>
  </outline>
</glyph>
<glyph name="Ccedilla" format="2">
  <advance width="714"/>
  <unicode hex="00C7"/>
  <outline>
    <contour>
      <point x="344" y="-235" type="curve" smooth="yes"/>
      <point x="406" y="-235"/>
      <point x="454" y="-195"/>
      <point x="454" y="-138" type="curve" smooth="yes"/>
      <point x="454" y="-99"/>
      <point x="426" y="-72"/>
      <point x="373" y="-68" type="curve"/>
      <point x="398" y="-11" type="line"/>
      <point x="494" y="-7"/>
      <point x="581" y="24"/>
      <point x="647" y="83" type="curve"/>
      <point x="615" y="121" type="line"/>
      <point x="552" y="64"/>
      <point x="474" y="37"/>
      <point x="387" y="37" type="curve" smooth="yes"/>
      <point x="230" y="37"/>
      <point x="130" y="161"/>
      <point x="130" y="309" type="curve" smooth="yes"/>
      <point x="130" y="498"/>
      <point x="277" y="663"/>
      <point x="453" y="663" type="curve" smooth="yes"/>
      <point x="548" y="663"/>
      <point x="626" y="625"/>
      <point x="676" y="555" type="curve"/>
      <point x="716" y="583" type="line"/>
      <point x="658" y="665"/>
      <point x="565" y="711"/>
      <point x="458" y="711" type="curve" smooth="yes"/>
      <point x="257" y="711"/>
      <point x="79" y="531"/>
      <point x="79" y="310" type="curve" smooth="yes"/>
      <point x="79" y="135"/>
      <point x="200" y="-2"/>
      <point x="365" y="-11" type="curve"/>
      <point x="327" y="-96" type="line"/>
      <point x="351" y="-96" type="line" smooth="yes"/>
      <point x="392" y="-96"/>
      <point x="419" y="-113"/>
      <point x="419" y="-144" type="curve" smooth="yes"/>
      <point x="419" y="-178"/>
      <point x="392" y="-204"/>
      <point x="342" y="-204" type="curve" smooth="yes"/>
      <point x="313" y="-204"/>
      <point x="290" y="-194"/>
      <point x="269" y="-171" type="curve"/>
      <point x="245" y="-195" type="line"/>
      <point x="263" y="-217"/>
      <point x="298" y="-235"/>
    </contour>
  </outline>
</glyph>
<glyph name="multiply" format="2">
  <advance width="599"/>
  <unicode hex="00D7"/>
  <outline>
    <contour>
      <point x="163" y="168" type="line"/>
      <point x="343" y="326" type="line"/>
      <point x="458" y="168" type="line"/>
      <point x="492" y="197" type="line"/>
      <point x="377" y="356" type="line"/>
      <point x="562" y="518" type="line"/>
      <point x="534" y="550" type="line"/>
      <point x="352" y="390" type="line"/>
      <point x="236" y="550" type="line"/>
      <point x="202" y="521" type="line"/>
      <point x="318" y="361" type="line"/>
      <point x="135" y="200" type="line"/>
    </contour>
  </outline>
</glyph>
<glyph name="Oslash" format="2">
  <advance width="793"/>
  <unicode hex="00D8"/>
  <outline>
    <contour>
      <point x="382" y="-11" type="curve" smooth="yes"/>
      <point x="583" y="-11"/>
      <point x="761" y="169"/>
      <point x="761" y="390" type="curve" smooth="yes"/>
      <point x="761" y="467"/>
      <point x="738" y="536"/>
      <point x="698" y="590" type="curve"/>
      <point x="811" y="700" type="line"/>
      <point x="748" y="700" type="line"/>
      <point x="670" y="624" type="line"/>
      <point x="616" y="678"/>
      <point x="542" y="711"/>
      <point x="458" y="711" type="curve" smooth="yes"/>
      <point x="257" y="711"/>
      <point x="79" y="531"/>
      <point x="79" y="310" type="curve" smooth="yes"/>
      <point x="79" y="233"/>
      <point x="102" y="164"/>
      <point x="142" y="110" type="curve"/>
      <point x="29" y="0" type="line"/>
      <point x="92" y="0" type="line"/>
      <point x="170" y="76" type="line"/>
      <point x="224" y="22"/>
      <point x="298" y="-11"/>
    </contour>
    <contour>
      <point x="178" y="145" type="line"/>
      <point x="147" y="191"/>
      <point x="130" y="248"/>
      <point x="130" y="309" type="curve" smooth="yes"/>
      <point x="130" y="498"/>
      <point x="277" y="663"/>
      <point x="453" y="663" type="curve" smooth="yes"/>
      <point x="528" y="663"/>
      <point x="590" y="635"/>
      <point x="634" y="589" type="curve"/>
    </contour>
    <contour>
      <point x="387" y="37" type="curve" smooth="yes"/>
      <point x="312" y="37"/>
      <point x="250" y="65"/>
      <point x="206" y="111" type="curve"/>
      <point x="662" y="555" type="line"/>
      <point x="693" y="509"/>
      <point x="710" y="452"/>
      <point x="710" y="391" type="curve" smooth="yes"/>
      <point x="710" y="202"/>
      <point x="563" y="37"/>
    </contour>
  </outline>
</glyph>
<glyph name="ae" format="2">
  <advance width="841"/>
  <unicode hex="00E6"/>
  <outline>
    <contour>
      <point x="197" y="-10" type="curve" smooth="yes"/>
      <point x="272" y="-10"/>
      <point x="340" y="20"/>
      <point x="397" y="77" type="curve"/>
      <point x="435" y="22"/>
      <point x="496" y="-10"/>
      <point x="565" y="-10" type="curve" smooth="yes"/>
      <point x="620" y="-10"/>
      <point x="676" y="8"/>
      <point x="729" y="43" type="curve"/>
      <point x="703" y="81" type="line"/>
      <point x="658" y="52"/>
      <point x="610" y="36"/>
      <point x="566" y="36" type="curve" smooth="yes"/>
      <point x="465" y="36"/>
      <point x="394" y="120"/>
      <point x="411" y="231" type="curve"/>
      <point x="792" y="231" type="line"/>
      <point x="795" y="251"/>
      <point x="796" y="272"/>
      <point x="796" y="295" type="curve" smooth="yes"/>
      <point x="796" y="408"/>
      <point x="722" y="489"/>
      <point x="617" y="489" type="curve" smooth="yes"/>
      <point x="543" y="489"/>
      <point x="471" y="451"/>
      <point x="422" y="386" type="curve"/>
      <point x="408" y="453"/>
      <point x="352" y="489"/>
      <point x="263" y="489" type="curve" smooth="yes"/>
      <point x="212" y="489"/>
      <point x="160" y="476"/>
      <point x="99" y="448" type="curve"/>
      <point x="117" y="408" type="line"/>
      <point x="178" y="435"/>
      <point x="221" y="447"/>
      <point x="260" y="447" type="curve" smooth="yes"/>
      <point x="357" y="447"/>
      <point x="392" y="400"/>
      <point x="373" y="296" type="curve" smooth="yes"/>
      <point x="363" y="243" type="line"/>
      <point x="325" y="268"/>
      <point x="273" y="282"/>
      <point x="215" y="282" type="curve" smooth="yes"/>
      <point x="110" y="282"/>
      <point x="35" y="219"/>
      <point x="35" y="130" type="curve" smooth="yes"/>
      <point x="35" y="47"/>
      <point x="101" y="-10"/>
    </contour>
    <contour>
      <point x="419" y="272" type="line"/>
      <point x="446" y="372"/>
      <point x="527" y="443"/>
      <point x="614" y="443" type="curve" smooth="yes"/>
      <point x="700" y="443"/>
      <point x="756" y="371"/>
      <point x="747" y="272" type="curve"/>
    </contour>
    <contour>
      <point x="206" y="32" type="curve" smooth="yes"/>
      <point x="128" y="32"/>
      <point x="82" y="70"/>
      <point x="82" y="135" type="curve" smooth="yes"/>
      <point x="82" y="195"/>
      <point x="141" y="240"/>
      <point x="219" y="240" type="curve" smooth="yes"/>
      <point x="281" y="240"/>
      <point x="324" y="228"/>
      <point x="361" y="200" type="curve"/>
      <point x="361" y="168"/>
      <point x="367" y="138"/>
      <point x="379" y="111" type="curve"/>
      <point x="322" y="57"/>
      <point x="267" y="32"/>
    </contour>
  </outline>
</glyph>
<glyph name="eth" format="2">
  <advance width="577"/>
  <unicode hex="00F0"/>
  <outline>
    <contour>
      <point x="258" y="-10" type="curve" smooth="yes"/>
      <point x="423" y="-10"/>
      <point x="537" y="153"/>
      <point x="537" y="388" type="curve" smooth="yes"/>
      <point x="537" y="483"/>
      <point x="515" y="563"/>
      <point x="473" y="626" type="curve"/>
      <point x="584" y="680" type="line"/>
      <point x="571" y="717" type="line"/>
      <point x="449" y="658" type="line"/>
      <point x="419" y="691"/>
      <point x="382" y="718"/>
      <point x="337" y="737" type="curve"/>
      <point x="314" y="700" type="line"/>
      <point x="350" y="685"/>
      <point x="381" y="664"/>
      <point x="407" y="638" type="curve"/>
      <point x="311" y="592" type="line"/>
      <point x="325" y="555" type="line"/>
      <point x="433" y="607" type="line"/>
      <point x="482" y="538"/>
      <point x="504" y="442"/>
      <point x="494" y="327" type="curve"/>
      <point x="477" y="417"/>
      <point x="403" y="480"/>
      <point x="303" y="480" type="curve" smooth="yes"/>
      <point x="165" y="480"/>
      <point x="56" y="358"/>
      <point x="56" y="204" type="curve" smooth="yes"/>
      <point x="56" y="79"/>
      <point x="140" y="-10"/>
    </contour>
    <contour>
      <point x="263" y="36" type="curve" smooth="yes"/>
      <point x="170" y="36"/>
      <point x="105" y="107"/>
      <point x="105" y="207" type="curve" smooth="yes"/>
      <point x="105" y="330"/>
      <point x="199" y="436"/>
      <point x="308" y="436" type="curve" smooth="yes"/>
      <point x="401" y="436"/>
      <point x="466" y="365"/>
      <point x="466" y="265" type="curve" smooth="yes"/>
      <point x="466" y="142"/>
      <point x="372" y="36"/>
    </contour>
  </outline>
</glyph>
<glyph name="divide" format="2">
  <advance width="600"/>
  <unicode hex="00F7"/>
  <outline>
    <contour>
      <point x="153" y="335" type="line"/>
      <point x="534" y="335" type="line"/>
      <point x="544" y="380" type="line"/>
      <point x="163" y="380" type="line"/>
    </contour>
    <contour>
      <point x="303" y="142" type="curve" smooth="yes"/>
      <point x="331" y="142"/>
      <point x="354" y="166"/>
      <point x="354" y="194" type="curve" smooth="yes"/>
      <point x="354" y="212"/>
      <point x="337" y="228"/>
      <point x="317" y="228" type="curve" smooth="yes"/>
      <point x="289" y="228"/>
      <point x="266" y="204"/>
      <point x="266" y="176" type="curve" smooth="yes"/>
      <point x="266" y="158"/>
      <point x="283" y="142"/>
    </contour>
    <contour>
      <point x="377" y="490" type="curve" smooth="yes"/>
      <point x="405" y="490"/>
      <point x="428" y="514"/>
      <point x="428" y="542" type="curve" smooth="yes"/>
      <point x="428" y="560"/>
      <point x="411" y="576"/>
      <point x="391" y="576" type="curve" smooth="yes"/>
      <point x="363" y="576"/>
      <point x="340" y="552"/>
      <point x="340" y="524" type="curve" smooth="yes"/>
      <point x="340" y="506"/>
      <point x="357" y="490"/>
    </contour>
  </outline>
</glyph>
<glyph name="Hbar" format="2">
  <advance width="709"/>
  <unicode hex="0126"/>
  <outline>
    <contour>
      <point x="40" y="0" type="line"/>
      <point x="91" y="0" type="line"/>
      <point x="161" y="329" type="line"/>
      <point x="586" y="329" type="line"/>
      <point x="516" y="0" type="line"/>
      <point x="567" y="0" type="line"/>
      <point x="679" y="528" type="line"/>
      <point x="762" y="528" type="line"/>
      <point x="772" y="572" type="line"/>
      <point x="689" y="572" type="line"/>
      <point x="716" y="700" type="line"/>
      <point x="665" y="700" type="line"/>
      <point x="638" y="572" type="line"/>
      <point x="213" y="572" type="line"/>
      <point x="240" y="700" type="line"/>
      <point x="189" y="700" type="line"/>
      <point x="162" y="572" type="line"/>
      <point x="79" y="572" type="line"/>
      <point x="69" y="528" type="line"/>
      <point x="152" y="528" type="line"/>
    </contour>
    <contour>
      <point x="171" y="376" type="line"/>
      <point x="203" y="528" type="line"/>
      <point x="628" y="528" type="line"/>
      <point x="596" y="376" type="line"/>
    </contour>
  </outline>
</glyph>
<glyph name="hbar" format="2">
  <advance width="525"/>
  <unicode hex="0127"/>
  <outline>
    <contour>
      <point x="27" y="0" type="line"/>
      <point x="76" y="0" type="line"/>
      <point x="152" y="363" type="line"/>
      <point x="191" y="416"/>
      <point x="245" y="445"/>
      <point x="302" y="445" type="curve" smooth="yes"/>
      <point x="389" y="445"/>
      <point x="435" y="381"/>
      <point x="413" y="282" type="curve" smooth="yes"/>
      <point x="351" y="0" type="line"/>
      <point x="400" y="0" type="line"/>
      <point x="463" y="290" type="line" smooth="yes"/>
      <point x="489" y="409"/>
      <point x="422" y="489"/>
      <point x="315" y="489" type="curve" smooth="yes"/>
      <point x="255" y="489"/>
      <point x="205" y="461"/>
      <point x="161" y="408" type="curve"/>
      <point x="196" y="576" type="line"/>
      <point x="354" y="576" type="line"/>
      <point x="362" y="616" type="line"/>
      <point x="205" y="616" type="line"/>
      <point x="230" y="737" type="line"/>
      <point x="179" y="725" type="line"/>
      <point x="156" y="616" type="line"/>
      <point x="76" y="616" type="line"/>
      <point x="68" y="576" type="line"/>
      <point x="148" y="576" type="line"/>
    </contour>
  </outline>
</glyph>
<glyph name="Iogonek" format="2">
  <advance width="233"/>
  <unicode hex="012E"/>
  <outline>
    <contour>
      <point x="11" y="-232" type="curve" smooth="yes"/>
      <point x="32" y="-232"/>
      <point x="53" y="-227"/>
      <point x="68" y="-220" type="curve"/>
      <point x="65" y="-188" type="line"/>
      <point x="52" y="-193"/>
      <point x="33" y="-197"/>
      <point x="19" y="-197" type="curve" smooth="yes"/>
      <point x="-19" y="-197"/>
      <point x="-46" y="-176"/>
      <point x="-46" y="-146" type="curve" smooth="yes"/>
      <point x="-46" y="-102"/>
      <point x="-15" y="-56"/>
      <point x="91" y="0" type="curve"/>
      <point x="240" y="700" type="line"/>
      <point x="189" y="700" type="line"/>
      <point x="40" y="0" type="line"/>
      <point x="42" y="0" type="line"/>
      <point x="-43" y="-45"/>
      <point x="-86" y="-97"/>
      <point x="-86" y="-154" type="curve" smooth="yes"/>
      <point x="-86" y="-195"/>
      <point x="-54" y="-232"/>
    </contour>
  </outline>
</glyph>
<glyph name="kgreenlandic" format="2">
  <advance width="451"/>
  <unicode hex="0138"/>
  <outline>
    <contour>
      <point x="27" y="0" type="line"/>
      <point x="76" y="0" type="line"/>
      <point x="128" y="236" type="line"/>
      <point x="328" y="0" type="line"/>
      <point x="387" y="0" type="line"/>
      <point x="175" y="249" type="line"/>
      <point x="490" y="481" type="line"/>
      <point x="418" y="481" type="line"/>
      <point x="135" y="270" type="line"/>
      <point x="181" y="481" type="line"/>
      <point x="132" y="481" type="line"/>
    </contour>
  </outline>
</glyph>
<glyph name="eng" format="2">
  <advance width="525"/>
  <unicode hex="014B"/>
  <outline>
    <contour>
      <point x="254" y="-219" type="curve" smooth="yes"/>
      <point x="326" y="-219"/>
      <point x="359" y="-187"/>
      <point x="376" y="-110" type="curve" smooth="yes"/>
      <point x="462" y="290" type="line" smooth="yes"/>
      <point x="488" y="409"/>
      <point x="422" y="489"/>
      <point x="315" y="489" type="curve" smooth="yes"/>
      <point x="257" y="489"/>
      <point x="209" y="463"/>
      <point x="166" y="414" type="curve"/>
      <point x="181" y="481" type="line"/>
      <point x="132" y="481" type="line"/>
      <point x="27" y="0" type="line"/>
      <point x="76" y="0" type="line"/>
      <point x="157" y="369" type="line"/>
      <point x="195" y="418"/>
      <point x="247" y="445"/>
      <point x="302" y="445" type="curve" smooth="yes"/>
      <point x="389" y="445"/>
      <point x="433" y="381"/>
      <point x="412" y="282" type="curve" smooth="yes"/>
      <point x="329" y="-105" type="line" smooth="yes"/>
      <point x="319" y="-153"/>
      <point x="299" y="-173"/>
      <point x="260" y="-173" type="curve" smooth="yes"/>
      <point x="248" y="-173"/>
      <point x="235" y="-171"/>
      <point x="223" y="-166" type="curve"/>
      <point x="213" y="-213" type="line"/>
      <point x="225" y="-217"/>
      <point x="241" y="-219"/>
    </contour>
  </outline>
</glyph>
<glyph name="Scedilla" format="2">
  <advance width="604"/>
  <unicode hex="015E"/>
  <outline>
    <contour>
      <point x="254" y="-235" type="curve" smooth="yes"/>
      <point x="316" y="-235"/>
      <point x="364" y="-195"/>
      <point x="364" y="-138" type="curve" smooth="yes"/>
      <point x="364" y="-99"/>
      <point x="336" y="-72"/>
      <point x="283" y="-68" type="curve"/>
      <point x="308" y="-11" type="line"/>
      <point x="453" y="-11"/>
      <point x="557" y="76"/>
      <point x="557" y="198" type="curve" smooth="yes"/>
      <point x="557" y="287"/>
      <point x="500" y="342"/>
      <point x="373" y="374" type="curve" smooth="yes"/>
      <point x="275" y="399" type="line" smooth="yes"/>
      <point x="190" y="421"/>
      <point x="150" y="461"/>
      <point x="150" y="525" type="curve" smooth="yes"/>
      <point x="150" y="608"/>
      <point x="223" y="663"/>
      <point x="332" y="663" type="curve" smooth="yes"/>
      <point x="418" y="663"/>
      <point x="506" y="625"/>
      <point x="572" y="561" type="curve"/>
      <point x="606" y="599" type="line"/>
      <point x="529" y="672"/>
      <point x="433" y="711"/>
      <point x="333" y="711" type="curve" smooth="yes"/>
      <point x="192" y="711"/>
      <point x="99" y="636"/>
      <point x="99" y="521" type="curve" smooth="yes"/>
      <point x="99" y="436"/>
      <point x="154" y="378"/>
      <point x="260" y="351" type="curve" smooth="yes"/>
      <point x="358" y="326" type="line" smooth="yes"/>
      <point x="464" y="299"/>
      <point x="506" y="261"/>
      <point x="506" y="194" type="curve" smooth="yes"/>
      <point x="506" y="102"/>
      <point x="425" y="37"/>
      <point x="310" y="37" type="curve" smooth="yes"/>
      <point x="219" y="37"/>
      <point x="119" y="82"/>
      <point x="60" y="171" type="curve"/>
      <point x="23" y="136" type="line"/>
      <point x="85" y="48"/>
      <point x="182" y="-1"/>
      <point x="276" y="-10" type="curve"/>
      <point x="237" y="-96" type="line"/>
      <point x="261" y="-96" type="line" smooth="yes"/>
      <point x="302" y="-96"/>
      <point x="329" y="-113"/>
      <point x="329" y="-144" type="curve" smooth="yes"/>
      <point x="329" y="-178"/>
      <point x="302" y="-204"/>
      <point x="252" y="-204" type="curve" smooth="yes"/>
      <point x="223" y="-204"/>
      <point x="200" y="-194"/>
      <point x="179" y="-171" type="curve"/>
      <point x="155" y="-195" type="line"/>
      <point x="173" y="-217"/>
      <point x="208" y="-235"/>
    </contour>
  </outline>
</glyph>
<glyph name="scedilla" format="2">
  <advance width="427"/>
  <unicode hex="015F"/>
  <outline>
    <contour>
      <point x="146" y="-235" type="curve" smooth="yes"/>
      <point x="208" y="-235"/>
      <point x="256" y="-195"/>
      <point x="256" y="-138" type="curve" smooth="yes"/>
      <point x="256" y="-99"/>
      <point x="228" y="-72"/>
      <point x="175" y="-68" type="curve"/>
      <point x="201" y="-10" type="line"/>
      <point x="302" y="-7"/>
      <point x="374" y="54"/>
      <point x="374" y="138" type="curve" smooth="yes"/>
      <point x="374" y="197"/>
      <point x="339" y="232"/>
      <point x="257" y="257" type="curve" smooth="yes"/>
      <point x="186" y="278" type="line" smooth="yes"/>
      <point x="134" y="293"/>
      <point x="113" y="316"/>
      <point x="113" y="357" type="curve" smooth="yes"/>
      <point x="113" y="408"/>
      <point x="159" y="443"/>
      <point x="227" y="443" type="curve" smooth="yes"/>
      <point x="275" y="443"/>
      <point x="321" y="424"/>
      <point x="380" y="380" type="curve"/>
      <point x="410" y="416" type="line"/>
      <point x="356" y="463"/>
      <point x="291" y="489"/>
      <point x="228" y="489" type="curve" smooth="yes"/>
      <point x="133" y="489"/>
      <point x="66" y="435"/>
      <point x="66" y="357" type="curve" smooth="yes"/>
      <point x="66" y="294"/>
      <point x="101" y="254"/>
      <point x="174" y="233" type="curve" smooth="yes"/>
      <point x="244" y="213" type="line" smooth="yes"/>
      <point x="304" y="196"/>
      <point x="327" y="175"/>
      <point x="327" y="136" type="curve" smooth="yes"/>
      <point x="327" y="79"/>
      <point x="269" y="36"/>
      <point x="194" y="36" type="curve" smooth="yes"/>
      <point x="141" y="36"/>
      <point x="101" y="53"/>
      <point x="42" y="102" type="curve"/>
      <point x="9" y="70" type="line"/>
      <point x="55" y="23"/>
      <point x="107" y="-3"/>
      <point x="168" y="-9" type="curve"/>
      <point x="129" y="-96" type="line"/>
      <point x="153" y="-96" type="line" smooth="yes"/>
      <point x="194" y="-96"/>
      <point x="221" y="-113"/>
      <point x="221" y="-144" type="curve" smooth="yes"/>
      <point x="221" y="-178"/>
      <point x="194" y="-204"/>
      <point x="144" y="-204" type="curve" smooth="yes"/>
      <point x="115" y="-204"/>
      <point x="92" y="-194"/>
      <point x="71" y="-171" type="curve"/>
      <point x="47" y="-195" type="line"/>
      <point x="65" y="-217"/>
      <point x="100" y="-235"/>
    </contour>
  </outline>
</glyph>
<glyph name="Tcedilla" format="2">
  <advance width="592"/>
  <unicode hex="0162"/>
  <outline>
    <contour>
      <point x="201" y="-235" type="curve" smooth="yes"/>
      <point x="263" y="-235"/>
      <point x="311" y="-195"/>
      <point x="311" y="-138" type="curve" smooth="yes"/>
      <point x="311" y="-99"/>
      <point x="283" y="-72"/>
      <point x="230" y="-68" type="curve"/>
      <point x="260" y="0" type="line"/>
      <point x="270" y="0" type="line"/>
      <point x="409" y="653" type="line"/>
      <point x="649" y="653" type="line"/>
      <point x="659" y="700" type="line"/>
      <point x="128" y="700" type="line"/>
      <point x="118" y="653" type="line"/>
      <point x="358" y="653" type="line"/>
      <point x="219" y="0" type="line"/>
      <point x="227" y="0" type="line"/>
      <point x="184" y="-96" type="line"/>
      <point x="208" y="-96" type="line" smooth="yes"/>
      <point x="249" y="-96"/>
      <point x="276" y="-113"/>
      <point x="276" y="-144" type="curve" smooth="yes"/>
      <point x="276" y="-178"/>
      <point x="249" y="-204"/>
      <point x="199" y="-204" type="curve" smooth="yes"/>
      <point x="170" y="-204"/>
      <point x="147" y="-194"/>
      <point x="126" y="-171" type="curve"/>
      <point x="102" y="-195" type="line"/>
      <point x="120" y="-217"/>
      <point x="155" y="-235"/>
    </contour>
  </outline>
</glyph>
<glyph name="tcedilla" format="2">
  <advance width="345"/>
  <unicode hex="0163"/>
  <outline>
    <contour>
      <point x="147" y="-235" type="curve" smooth="yes"/>
      <point x="209" y="-235"/>
      <point x="257" y="-195"/>
      <point x="257" y="-138" type="curve" smooth="yes"/>
      <point x="257" y="-99"/>
      <point x="229" y="-72"/>
      <point x="176" y="-68" type="curve"/>
      <point x="202" y="-10" type="line"/>
      <point x="221" y="-10"/>
      <point x="241" y="-7"/>
      <point x="263" y="0" type="curve"/>
      <point x="273" y="46" type="line"/>
      <point x="249" y="39"/>
      <point x="235" y="36"/>
      <point x="218" y="36" type="curve" smooth="yes"/>
      <point x="155" y="36"/>
      <point x="138" y="59"/>
      <point x="150" y="117" type="curve" smooth="yes"/>
      <point x="218" y="438" type="line"/>
      <point x="357" y="438" type="line"/>
      <point x="366" y="481" type="line"/>
      <point x="227" y="481" type="line"/>
      <point x="258" y="625" type="line"/>
      <point x="206" y="612" type="line"/>
      <point x="178" y="481" type="line"/>
      <point x="80" y="481" type="line"/>
      <point x="71" y="438" type="line"/>
      <point x="169" y="438" type="line"/>
      <point x="100" y="114" type="line" smooth="yes"/>
      <point x="87" y="52"/>
      <point x="110" y="4"/>
      <point x="170" y="-7" type="curve"/>
      <point x="130" y="-96" type="line"/>
      <point x="154" y="-96" type="line" smooth="yes"/>
      <point x="195" y="-96"/>
      <point x="222" y="-113"/>
      <point x="222" y="-144" type="curve" smooth="yes"/>
      <point x="222" y="-178"/>
      <point x="195" y="-204"/>
      <point x="145" y="-204" type="curve" smooth="yes"/>
      <point x="116" y="-204"/>
      <point x="93" y="-194"/>
      <point x="72" y="-171" type="curve"/>
      <point x="48" y="-195" type="line"/>
      <point x="66" y="-217"/>
      <point x="101" y="-235"/>
    </contour>
  </outline>
</glyph>
<glyph name="Uogonek" format="2">
  <advance width="688"/>
  <unicode hex="0172"/>
  <outline>
    <contour>
      <point x="312" y="-232" type="curve" smooth="yes"/>
      <point x="333" y="-232"/>
      <point x="354" y="-227"/>
      <point x="369" y="-220" type="curve"/>
      <point x="366" y="-188" type="line"/>
      <point x="353" y="-193"/>
      <point x="334" y="-197"/>
      <point x="320" y="-197" type="curve" smooth="yes"/>
      <point x="282" y="-197"/>
      <point x="255" y="-176"/>
      <point x="255" y="-146" type="curve" smooth="yes"/>
      <point x="255" y="-103"/>
      <point x="285" y="-58"/>
      <point x="386" y="-3" type="curve"/>
      <point x="502" y="24"/>
      <point x="585" y="119"/>
      <point x="619" y="279" type="curve" smooth="yes"/>
      <point x="709" y="700" type="line"/>
      <point x="658" y="700" type="line"/>
      <point x="570" y="289" type="line" smooth="yes"/>
      <point x="534" y="120"/>
      <point x="442" y="37"/>
      <point x="314" y="37" type="curve" smooth="yes"/>
      <point x="177" y="37"/>
      <point x="106" y="139"/>
      <point x="138" y="289" type="curve" smooth="yes"/>
      <point x="226" y="700" type="line"/>
      <point x="175" y="700" type="line"/>
      <point x="89" y="299" type="line" smooth="yes"/>
      <point x="51" y="120"/>
      <point x="142" y="-11"/>
      <point x="320" y="-11" type="curve"/>
      <point x="240" y="-62"/>
      <point x="215" y="-110"/>
      <point x="215" y="-154" type="curve" smooth="yes"/>
      <point x="215" y="-195"/>
      <point x="247" y="-232"/>
    </contour>
  </outline>
</glyph>
<glyph name="uogonek" format="2">
  <advance width="524"/>
  <unicode hex="0173"/>
  <outline>
    <contour>
      <point x="314" y="-232" type="curve" smooth="yes"/>
      <point x="335" y="-232"/>
      <point x="356" y="-227"/>
      <point x="371" y="-220" type="curve"/>
      <point x="368" y="-188" type="line"/>
      <point x="355" y="-193"/>
      <point x="336" y="-197"/>
      <point x="322" y="-197" type="curve" smooth="yes"/>
      <point x="284" y="-197"/>
      <point x="257" y="-176"/>
      <point x="257" y="-146" type="curve" smooth="yes"/>
      <point x="257" y="-102"/>
      <point x="288" y="-56"/>
      <point x="394" y="0" type="curve"/>
      <point x="497" y="481" type="line"/>
      <point x="448" y="481" type="line"/>
      <point x="369" y="111" type="line"/>
      <point x="330" y="63"/>
      <point x="279" y="36"/>
      <point x="224" y="36" type="curve" smooth="yes"/>
      <point x="137" y="36"/>
      <point x="91" y="100"/>
      <point x="113" y="199" type="curve" smooth="yes"/>
      <point x="175" y="481" type="line"/>
      <point x="126" y="481" type="line"/>
      <point x="63" y="191" type="line" smooth="yes"/>
      <point x="37" y="72"/>
      <point x="104" y="-8"/>
      <point x="211" y="-8" type="curve" smooth="yes"/>
      <point x="269" y="-8"/>
      <point x="317" y="18"/>
      <point x="359" y="66" type="curve"/>
      <point x="345" y="0" type="line"/>
      <point x="346" y="0" type="line"/>
      <point x="259" y="-47"/>
      <point x="217" y="-97"/>
      <point x="217" y="-154" type="curve" smooth="yes"/>
      <point x="217" y="-195"/>
      <point x="249" y="-232"/>
    </contour>
  </outline>
</glyph>
<glyph name="dotlessj" format="2">
  <advance width="204"/>
  <unicode hex="0237"/>
  <anchor x="153" y="481" name="top"/>
  <outline>
    <contour>
      <point x="-71" y="-219" type="curve" smooth="yes"/>
      <point x="1" y="-219"/>
      <point x="35" y="-186"/>
      <point x="51" y="-110" type="curve" smooth="yes"/>
      <point x="178" y="481" type="line"/>
      <point x="129" y="481" type="line"/>
      <point x="4" y="-105" type="line" smooth="yes"/>
      <point x="-6" y="-153"/>
      <point x="-26" y="-173"/>
      <point x="-65" y="-173" type="curve" smooth="yes"/>
      <point x="-77" y="-173"/>
      <point x="-90" y="-171"/>
      <point x="-102" y="-166" type="curve"/>
      <point x="-112" y="-213" type="line"/>
      <point x="-100" y="-217"/>
      <point x="-84" y="-219"/>
    </contour>
  </outline>
</glyph>
<glyph name="caron" format="2">
  <advance width="600"/>
  <unicode hex="02C7"/>
  <outline>
    <contour>
      <point x="344" y="577" type="line"/>
      <point x="401" y="577" type="line"/>
      <point x="534" y="698" type="line"/>
      <point x="488" y="698" type="line"/>
      <point x="377" y="609" type="line"/>
      <point x="302" y="698" type="line"/>
      <point x="261" y="698" type="line"/>
    </contour>
  </outline>
</glyph>
<glyph name="tilde" format="2">
  <advance width="600"/>
  <unicode hex="02DC"/>
  <outline>
    <contour>
      <point x="258" y="582" type="line"/>
      <point x="276" y="623"/>
      <point x="294" y="639"/>
      <point x="318" y="639" type="curve" smooth="yes"/>
      <point x="358" y="639"/>
      <point x="395" y="580"/>
      <point x="452" y="580" type="curve" smooth="yes"/>
      <point x="486" y="580"/>
      <point x="519" y="605"/>
      <point x="546" y="666" type="curve"/>
      <point x="507" y="677" type="line"/>
      <point x="487" y="632"/>
      <point x="473" y="619"/>
      <point x="451" y="619" type="curve" smooth="yes"/>
      <point x="411" y="619"/>
      <point x="374" y="679"/>
      <point x="317" y="679" type="curve" smooth="yes"/>
      <point x="281" y="679"/>
      <point x="246" y="655"/>
      <point x="219" y="595" type="curve"/>
    </contour>
  </outline>
</glyph>
<glyph name="uni030B" format="2">
  <unicode hex="030B"/>
  <anchor x="351" y="481" name="_top"/>
  <outline>
    <contour>
      <point x="383" y="695" type="line"/>
      <point x="235" y="577" type="line"/>
      <point x="292" y="577" type="line"/>
      <point x="452" y="695" type="line"/>
    </contour>
    <contour>
      <point x="539" y="695" type="line"/>
      <point x="391" y="577" type="line"/>
      <point x="448" y="577" type="line"/>
      <point x="608" y="695" type="line"/>
    </contour>
  </outline>
</glyph>
<glyph name="uni0326" format="2">
  <unicode hex="0326"/>
  <anchor x="245" y="0" name="_bottom"/>
  <outline>
    <contour>
      <point x="125" y="-266" type="line"/>
      <point x="164" y="-266" type="line"/>
      <point x="262" y="-86" type="line"/>
      <point x="206" y="-86" type="line"/>
    </contour>
  </outline>
</glyph>
<glyph name="daggerdbl" format="2">
  <advance width="418"/>
  <unicode hex="2021"/>
  <outline>
    <contour>
      <point x="135" y="0" type="line"/>
      <point x="183" y="0" type="line"/>
      <point x="226" y="204" type="line"/>
      <point x="362" y="204" type="line"/>
      <point x="371" y="248" type="line"/>
      <point x="236" y="248" type="line"/>
      <point x="279" y="452" type="line"/>
      <point x="415" y="452" type="line"/>
      <point x="424" y="496" type="line"/>
      <point x="289" y="496" type="line"/>
      <point x="332" y="700" type="line"/>
      <point x="284" y="700" type="line"/>
      <point x="241" y="496" type="line"/>
      <point x="104" y="496" type="line"/>
      <point x="94" y="452" type="line"/>
      <point x="231" y="452" type="line"/>
      <point x="188" y="248" type="line"/>
      <point x="51" y="248" type="line"/>
      <point x="42" y="204" type="line"/>
      <point x="178" y="204" type="line"/>
    </contour>
  </outline>
</glyph>
<glyph name="guilsinglleft" format="2">
  <advance width="379"/>
  <unicode hex="2039"/>
  <outline>
    <contour>
      <point x="218" y="0" type="line"/>
      <point x="271" y="0" type="line"/>
      <point x="109" y="236" type="line"/>
      <point x="374" y="481" type="line"/>
      <point x="311" y="481" type="line"/>
      <point x="49" y="241" type="line"/>
    </contour>
  </outline>
</glyph>
<glyph name="uni2070" format="2">
  <advance width="343"/>
  <unicode hex="2070"/>
  <outline>
    <contour>
      <point x="210" y="345" type="curve" smooth="yes"/>
      <point x="302" y="345"/>
      <point x="379" y="448"/>
      <point x="379" y="568" type="curve" smooth="yes"/>
      <point x="379" y="651"/>
      <point x="330" y="705"/>
      <point x="256" y="705" type="curve" smooth="yes"/>
      <point x="164" y="705"/>
      <point x="87" y="601"/>
      <point x="87" y="482" type="curve" smooth="yes"/>
      <point x="87" y="399"/>
      <point x="136" y="345"/>
    </contour>
    <contour>
      <point x="215" y="381" type="curve" smooth="yes"/>
      <point x="163" y="381"/>
      <point x="127" y="419"/>
      <point x="127" y="482" type="curve" smooth="yes"/>
      <point x="127" y="582"/>
      <point x="187" y="669"/>
      <point x="252" y="669" type="curve" smooth="yes"/>
      <point x="304" y="669"/>
      <point x="339" y="631"/>
      <point x="339" y="568" type="curve" smooth="yes"/>
      <point x="339" y="468"/>
      <point x="280" y="381"/>
    </contour>
  </outline>
</glyph>
<glyph name="uni2074" format="2">
  <advance width="314"/>
  <unicode hex="2074"/>
  <outline>
    <contour>
      <point x="239" y="350" type="line"/>
      <point x="278" y="350" type="line"/>
      <point x="298" y="442" type="line"/>
      <point x="339" y="442" type="line"/>
      <point x="347" y="476" type="line"/>
      <point x="305" y="476" type="line"/>
      <point x="353" y="700" type="line"/>
      <point x="310" y="700" type="line"/>
      <point x="70" y="473" type="line"/>
      <point x="65" y="442" type="line"/>
      <point x="259" y="442" type="line"/>
    </contour>
    <contour>
      <point x="120" y="476" type="line"/>
      <point x="303" y="649" type="line"/>
      <point x="266" y="476" type="line"/>
    </contour>
  </outline>
</glyph>
<glyph name="uni2075" format="2">
  <advance width="292"/>
  <unicode hex="2075"/>
  <outline>
    <contour>
      <point x="179" y="345" type="curve"/>
      <point x="255" y="345"/>
      <point x="317" y="398"/>
      <point x="317" y="467" type="curve" smooth="yes"/>
      <point x="317" y="525"/>
      <point x="271" y="565"/>
      <point x="202" y="565" type="curve" smooth="yes"/>
      <point x="183" y="565"/>
      <point x="164" y="561"/>
      <point x="143" y="555" type="curve"/>
      <point x="170" y="665" type="line"/>
      <point x="342" y="665" type="line"/>
      <point x="350" y="700" type="line"/>
      <point x="143" y="700" type="line"/>
      <point x="102" y="533" type="line"/>
      <point x="123" y="523" type="line"/>
      <point x="145" y="531"/>
      <point x="167" y="534"/>
      <point x="194" y="534" type="curve" smooth="yes"/>
      <point x="248" y="534"/>
      <point x="278" y="510"/>
      <point x="278" y="465" type="curve" smooth="yes"/>
      <point x="278" y="417"/>
      <point x="235" y="380"/>
      <point x="180" y="380" type="curve"/>
      <point x="144" y="380"/>
      <point x="110" y="394"/>
      <point x="80" y="422" type="curve"/>
      <point x="58" y="391" type="line"/>
      <point x="89" y="361"/>
      <point x="129" y="345"/>
    </contour>
  </outline>
</glyph>
<glyph name="uni2076" format="2">
  <advance width="318"/>
  <unicode hex="2076"/>
  <outline>
    <contour>
      <point x="205" y="345" type="curve" smooth="yes"/>
      <point x="278" y="345"/>
      <point x="338" y="402"/>
      <point x="338" y="470" type="curve" smooth="yes"/>
      <point x="338" y="526"/>
      <point x="294" y="566"/>
      <point x="235" y="566" type="curve" smooth="yes"/>
      <point x="195" y="566"/>
      <point x="156" y="551"/>
      <point x="129" y="527" type="curve"/>
      <point x="147" y="610"/>
      <point x="209" y="670"/>
      <point x="276" y="670" type="curve" smooth="yes"/>
      <point x="299" y="670"/>
      <point x="323" y="663"/>
      <point x="346" y="648" type="curve"/>
      <point x="366" y="681" type="line"/>
      <point x="337" y="697"/>
      <point x="307" y="705"/>
      <point x="279" y="705" type="curve" smooth="yes"/>
      <point x="174" y="705"/>
      <point x="86" y="606"/>
      <point x="86" y="480" type="curve" smooth="yes"/>
      <point x="86" y="399"/>
      <point x="133" y="345"/>
    </contour>
    <contour>
      <point x="210" y="380" type="curve" smooth="yes"/>
      <point x="152" y="380"/>
      <point x="118" y="427"/>
      <point x="125" y="495" type="curve"/>
      <point x="151" y="520"/>
      <point x="186" y="534"/>
      <point x="219" y="534" type="curve" smooth="yes"/>
      <point x="267" y="534"/>
      <point x="300" y="506"/>
      <point x="300" y="465" type="curve" smooth="yes"/>
      <point x="300" y="419"/>
      <point x="259" y="380"/>
    </contour>
  </outline>
</glyph>
<glyph name="uni2077" format="2">
  <advance width="285"/>
  <unicode hex="2077"/>
  <outline>
    <contour>
      <point x="76" y="350" type="line"/>
      <point x="124" y="350" type="line"/>
      <point x="367" y="669" type="line"/>
      <point x="372" y="700" type="line"/>
      <point x="114" y="700" type="line"/>
      <point x="106" y="665" type="line"/>
      <point x="317" y="665" type="line"/>
    </contour>
  </outline>
</glyph>
<glyph name="uni2078" format="2">
  <advance width="318"/>
  <unicode hex="2078"/>
  <outline>
    <contour>
      <point x="196" y="345" type="curve" smooth="yes"/>
      <point x="273" y="345"/>
      <point x="334" y="393"/>
      <point x="334" y="453" type="curve" smooth="yes"/>
      <point x="334" y="488"/>
      <point x="311" y="516"/>
      <point x="273" y="530" type="curve"/>
      <point x="321" y="542"/>
      <point x="354" y="578"/>
      <point x="354" y="620" type="curve" smooth="yes"/>
      <point x="354" y="669"/>
      <point x="308" y="705"/>
      <point x="247" y="705" type="curve" smooth="yes"/>
      <point x="178" y="705"/>
      <point x="122" y="661"/>
      <point x="122" y="607" type="curve" smooth="yes"/>
      <point x="122" y="575"/>
      <point x="139" y="551"/>
      <point x="169" y="537" type="curve"/>
      <point x="114" y="526"/>
      <point x="74" y="484"/>
      <point x="74" y="437" type="curve" smooth="yes"/>
      <point x="74" y="384"/>
      <point x="124" y="345"/>
    </contour>
    <contour>
      <point x="232" y="549" type="curve" smooth="yes"/>
      <point x="192" y="549"/>
      <point x="161" y="573"/>
      <point x="161" y="605" type="curve" smooth="yes"/>
      <point x="161" y="643"/>
      <point x="198" y="672"/>
      <point x="244" y="672" type="curve" smooth="yes"/>
      <point x="284" y="672"/>
      <point x="315" y="648"/>
      <point x="315" y="616" type="curve" smooth="yes"/>
      <point x="315" y="578"/>
      <point x="279" y="549"/>
    </contour>
    <contour>
      <point x="199" y="378" type="curve" smooth="yes"/>
      <point x="149" y="378"/>
      <point x="113" y="405"/>
      <point x="113" y="442" type="curve" smooth="yes"/>
      <point x="113" y="482"/>
      <point x="157" y="516"/>
      <point x="209" y="516" type="curve" smooth="yes"/>
      <point x="259" y="516"/>
      <point x="295" y="489"/>
      <point x="295" y="452" type="curve" smooth="yes"/>
      <point x="295" y="412"/>
      <point x="250" y="378"/>
    </contour>
  </outline>
</glyph>
<glyph name="uni2079" format="2">
  <advance width="318"/>
  <unicode hex="2079"/>
  <outline>
    <contour>
      <point x="238" y="705" type="curve" smooth="yes"/>
      <point x="165" y="705"/>
      <point x="105" y="648"/>
      <point x="105" y="580" type="curve" smooth="yes"/>
      <point x="105" y="524"/>
      <point x="149" y="484"/>
      <point x="208" y="484" type="curve" smooth="yes"/>
      <point x="248" y="484"/>
      <point x="287" y="499"/>
      <point x="314" y="523" type="curve"/>
      <point x="296" y="440"/>
      <point x="234" y="380"/>
      <point x="167" y="380" type="curve" smooth="yes"/>
      <point x="144" y="380"/>
      <point x="120" y="387"/>
      <point x="97" y="402" type="curve"/>
      <point x="77" y="369" type="line"/>
      <point x="106" y="353"/>
      <point x="136" y="345"/>
      <point x="164" y="345" type="curve" smooth="yes"/>
      <point x="269" y="345"/>
      <point x="357" y="444"/>
      <point x="357" y="570" type="curve" smooth="yes"/>
      <point x="357" y="651"/>
      <point x="310" y="705"/>
    </contour>
    <contour>
      <point x="233" y="670" type="curve" smooth="yes"/>
      <point x="291" y="670"/>
      <point x="325" y="623"/>
      <point x="318" y="555" type="curve"/>
      <point x="292" y="530"/>
      <point x="257" y="516"/>
      <point x="224" y="516" type="curve" smooth="yes"/>
      <point x="176" y="516"/>
      <point x="143" y="544"/>
      <point x="143" y="585" type="curve" smooth="yes"/>
      <point x="143" y="631"/>
      <point x="184" y="670"/>
    </contour>
  </outline>
</glyph>
<glyph name="uni2083" format="2">
  <advance width="300"/>
  <unicode hex="2083"/>
  <outline>
    <contour>
      <point x="111" y="-5" type="curve" smooth="yes"/>
      <point x="187" y="-5"/>
      <point x="241" y="37"/>
      <point x="241" y="93" type="curve" smooth="yes"/>
      <point x="241" y="132"/>
      <point x="213" y="163"/>
      <point x="171" y="174" type="curve"/>
      <point x="227" y="185"/>
      <point x="263" y="221"/>
      <point x="263" y="265" type="curve" smooth="yes"/>
      <point x="263" y="315"/>
      <point x="215" y="355"/>
      <point x="153" y="355" type="curve" smooth="yes"/>
      <point x="115" y="355"/>
      <point x="75" y="343"/>
      <point x="35" y="318" type="curve"/>
      <point x="53" y="287" type="line"/>
      <point x="96" y="311"/>
      <point x="124" y="320"/>
      <point x="151" y="320" type="curve" smooth="yes"/>
      <point x="194" y="320"/>
      <point x="224" y="295"/>
      <point x="224" y="260" type="curve" smooth="yes"/>
      <point x="224" y="221"/>
      <point x="183" y="191"/>
      <point x="128" y="191" type="curve" smooth="yes"/>
      <point x="101" y="191" type="line"/>
      <point x="95" y="160" type="line"/>
      <point x="123" y="160" type="line" smooth="yes"/>
      <point x="171" y="160"/>
      <point x="202" y="134"/>
      <point x="202" y="98" type="curve" smooth="yes"/>
      <point x="202" y="58"/>
      <point x="161" y="30"/>
      <point x="110" y="30" type="curve" smooth="yes"/>
      <point x="73" y="30"/>
      <point x="35" y="47"/>
      <point x="7" y="76" type="curve"/>
      <point x="-17" y="47" type="line"/>
      <point x="17" y="11"/>
      <point x="57" y="-5"/>
    </contour>
  </outline>
</glyph>
<glyph name="uni2086" format="2">
  <advance width="318"/>
  <unicode hex="2086"/>
  <outline>
    <contour>
      <point x="131" y="-5" type="curve" smooth="yes"/>
      <point x="204" y="-5"/>
      <point x="264" y="52"/>
      <point x="264" y="120" type="curve" smooth="yes"/>
      <point x="264" y="176"/>
      <point x="220" y="216"/>
      <point x="161" y="216" type="curve" smooth="yes"/>
      <point x="121" y="216"/>
      <point x="82" y="201"/>
      <point x="55" y="177" type="curve"/>
      <point x="73" y="260"/>
      <point x="135" y="320"/>
      <point x="202" y="320" type="curve" smooth="yes"/>
      <point x="225" y="320"/>
      <point x="249" y="313"/>
      <point x="272" y="298" type="curve"/>
      <point x="292" y="331" type="line"/>
      <point x="263" y="347"/>
      <point x="233" y="355"/>
      <point x="205" y="355" type="curve" smooth="yes"/>
      <point x="100" y="355"/>
      <point x="12" y="256"/>
      <point x="12" y="130" type="curve" smooth="yes"/>
      <point x="12" y="49"/>
      <point x="59" y="-5"/>
    </contour>
    <contour>
      <point x="136" y="30" type="curve" smooth="yes"/>
      <point x="78" y="30"/>
      <point x="44" y="77"/>
      <point x="51" y="145" type="curve"/>
      <point x="77" y="170"/>
      <point x="112" y="184"/>
      <point x="145" y="184" type="curve" smooth="yes"/>
      <point x="193" y="184"/>
      <point x="226" y="156"/>
      <point x="226" y="115" type="curve" smooth="yes"/>
      <point x="226" y="69"/>
      <point x="185" y="30"/>
    </contour>
  </outline>
</glyph>
<glyph name="Euro" format="2">
  <advance width="708"/>
  <unicode hex="20AC"/>
  <outline>
    <contour>
      <point x="404" y="-11" type="curve" smooth="yes"/>
      <point x="481" y="-11"/>
      <point x="558" y="26"/>
      <point x="623" y="94" type="curve"/>
      <point x="589" y="126" type="line"/>
      <point x="531" y="66"/>
      <point x="469" y="35"/>
      <point x="403" y="35" type="curve" smooth="yes"/>
      <point x="289" y="35"/>
      <point x="211" y="123"/>
      <point x="204" y="262" type="curve"/>
      <point x="414" y="262" type="line"/>
      <point x="436" y="306" type="line"/>
      <point x="204" y="306" type="line"/>
      <point x="205" y="338"/>
      <point x="210" y="368"/>
      <point x="217" y="397" type="curve"/>
      <point x="485" y="397" type="line"/>
      <point x="509" y="441" type="line"/>
      <point x="230" y="441" type="line"/>
      <point x="276" y="572"/>
      <point x="379" y="665"/>
      <point x="496" y="665" type="curve"/>
      <point x="578" y="665"/>
      <point x="642" y="622"/>
      <point x="681" y="539" type="curve"/>
      <point x="722" y="563" type="line"/>
      <point x="679" y="656"/>
      <point x="596" y="711"/>
      <point x="497" y="711" type="curve" smooth="yes"/>
      <point x="350" y="711"/>
      <point x="227" y="601"/>
      <point x="177" y="441" type="curve"/>
      <point x="87" y="441" type="line"/>
      <point x="77" y="397" type="line"/>
      <point x="165" y="397" type="line"/>
      <point x="159" y="368"/>
      <point x="155" y="338"/>
      <point x="154" y="306" type="curve"/>
      <point x="58" y="306" type="line"/>
      <point x="49" y="262" type="line"/>
      <point x="153" y="262" type="line"/>
      <point x="160" y="97"/>
      <point x="259" y="-11"/>
    </contour>
  </outline>
</glyph>
<glyph name="trademark" format="2">
  <advance width="654"/>
  <unicode hex="2122"/>
  <outline>
    <contour>
      <point x="346" y="424" type="line"/>
      <point x="378" y="424" type="line"/>
      <point x="426" y="649" type="line"/>
      <point x="482" y="443" type="line"/>
      <point x="627" y="654" type="line"/>
      <point x="578" y="424" type="line"/>
      <point x="610" y="424" type="line"/>
      <point x="669" y="700" type="line"/>
      <point x="624" y="700" type="line"/>
      <point x="494" y="506" type="line"/>
      <point x="445" y="700" type="line"/>
      <point x="405" y="700" type="line"/>
    </contour>
    <contour>
      <point x="181" y="424" type="line"/>
      <point x="213" y="424" type="line"/>
      <point x="266" y="670" type="line"/>
      <point x="360" y="670" type="line"/>
      <point x="366" y="700" type="line"/>
      <point x="147" y="700" type="line"/>
      <point x="140" y="670" type="line"/>
      <point x="234" y="670" type="line"/>
    </contour>
  </outline>
</glyph>
<glyph name="uni2193" format="2">
  <advance width="480"/>
  <unicode hex="2193"/>
  <outline>
    <contour>
      <point x="238" y="700" type="line"/>
      <point x="192" y="700" type="line"/>
      <point x="192" y="49" type="line"/>
      <point x="18" y="282" type="line"/>
      <point x="-16" y="258" type="line"/>
      <point x="214" y="-50" type="line"/>
      <point x="444" y="258" type="line"/>
      <point x="408" y="284" type="line"/>
      <point x="238" y="56" type="line"/>
    </contour>
  </outline>
</glyph>
<glyph name="uni2215" format="2">
  <advance width="600"/>
  <unicode hex="2215"/>
  <outline>
    <contour>
      <point x="29" y="0" type="line"/>
      <point x="77" y="0" type="line"/>
      <point x="621" y="700" type="line"/>
      <point x="573" y="700" type="line"/>
    </contour>
  </outline>
</glyph>
<glyph name="aogonek.school" format="2">
  <advance width="555"/>
  <outline>
    <contour>
      <point x="346" y="-232" type="curve" smooth="yes"/>
      <point x="367" y="-232"/>
      <point x="388" y="-227"/>
      <point x="403" y="-220" type="curve"/>
      <point x="400" y="-188" type="line"/>
      <point x="387" y="-193"/>
      <point x="368" y="-197"/>
      <point x="354" y="-197" type="curve" smooth="yes"/>
      <point x="316" y="-197"/>
      <point x="289" y="-176"/>
      <point x="289" y="-146" type="curve" smooth="yes"/>
      <point x="289" y="-102"/>
      <point x="320" y="-56"/>
      <point x="426" y="0" type="curve"/>
      <point x="529" y="481" type="line"/>
      <point x="480" y="481" type="line"/>
      <point x="464" y="406" type="line"/>
      <point x="427" y="462"/>
      <point x="369" y="487"/>
      <point x="305" y="487" type="curve" smooth="yes"/>
      <point x="167" y="487"/>
      <point x="55" y="361"/>
      <point x="55" y="209" type="curve" smooth="yes"/>
      <point x="55" y="83"/>
      <point x="138" y="-8"/>
      <point x="250" y="-8" type="curve" smooth="yes"/>
      <point x="301" y="-8"/>
      <point x="347" y="9"/>
      <point x="387" y="44" type="curve"/>
      <point x="377" y="0" type="line"/>
      <point x="378" y="0" type="line"/>
      <point x="291" y="-47"/>
      <point x="249" y="-97"/>
      <point x="249" y="-154" type="curve" smooth="yes"/>
      <point x="249" y="-195"/>
      <point x="281" y="-232"/>
    </contour>
    <contour>
      <point x="104" y="213" type="curve" smooth="yes"/>
      <point x="104" y="341"/>
      <point x="196" y="441"/>
      <point x="310" y="441" type="curve" smooth="yes"/>
      <point x="372" y="441"/>
      <point x="428" y="407"/>
      <point x="453" y="357" type="curve"/>
      <point x="396" y="88" type="line"/>
      <point x="360" y="55"/>
      <point x="312" y="36"/>
      <point x="264" y="36" type="curve" smooth="yes"/>
      <point x="170" y="36"/>
      <point x="104" y="107"/>
    </contour>
  </outline>
</glyph>
<glyph name="caronSlovak" format="2">
  <advance width="600"/>
  <outline>
    <contour>
      <point x="333" y="549" type="line"/>
      <point x="369" y="549" type="line"/>
      <point x="428" y="737" type="line"/>
      <point x="373" y="725" type="line"/>
    </contour>
  </outline>
</glyph>
<glyph name="eight.tab" format="2">
  <advance width="600"/>
  <note>
Version created Tue Sep 18 15:49:42 2018
</note>
  <outline>
    <contour>
      <point x="285" y="-11" type="curve" smooth="yes"/>
      <point x="426" y="-11"/>
      <point x="532" y="76"/>
      <point x="532" y="192" type="curve" smooth="yes"/>
      <point x="532" y="265"/>
      <point x="483" y="330"/>
      <point x="406" y="362" type="curve"/>
      <point x="514" y="391"/>
      <point x="573" y="455"/>
      <point x="573" y="544" type="curve" smooth="yes"/>
      <point x="573" y="642"/>
      <point x="488" y="711"/>
      <point x="366" y="711" type="curve" smooth="yes"/>
      <point x="237" y="711"/>
      <point x="143" y="633"/>
      <point x="143" y="525" type="curve" smooth="yes"/>
      <point x="143" y="458"/>
      <point x="181" y="407"/>
      <point x="245" y="381" type="curve"/>
      <point x="129" y="361"/>
      <point x="48" y="283"/>
      <point x="48" y="182" type="curve" smooth="yes"/>
      <point x="48" y="71"/>
      <point x="149" y="-11"/>
    </contour>
    <contour>
      <point x="354" y="397" type="curve" smooth="yes"/>
      <point x="250" y="397"/>
      <point x="190" y="443"/>
      <point x="190" y="522" type="curve" smooth="yes"/>
      <point x="190" y="605"/>
      <point x="264" y="667"/>
      <point x="362" y="667" type="curve" smooth="yes"/>
      <point x="466" y="667"/>
      <point x="526" y="622"/>
      <point x="526" y="543" type="curve" smooth="yes"/>
      <point x="526" y="461"/>
      <point x="451" y="397"/>
    </contour>
    <contour>
      <point x="289" y="34" type="curve" smooth="yes"/>
      <point x="177" y="34"/>
      <point x="96" y="99"/>
      <point x="96" y="188" type="curve" smooth="yes"/>
      <point x="96" y="284"/>
      <point x="174" y="348"/>
      <point x="291" y="348" type="curve" smooth="yes"/>
      <point x="403" y="348"/>
      <point x="484" y="284"/>
      <point x="484" y="195" type="curve" smooth="yes"/>
      <point x="484" y="99"/>
      <point x="406" y="34"/>
    </contour>
  </outline>
</glyph>
<glyph name="one.tab" format="2">
  <advance width="600"/>
  <guideline x="453" y="105" angle="0.0" identifier="pXguCbBa3n"/>
  <outline>
    <contour>
      <point x="44" y="0" type="line"/>
      <point x="479" y="0" type="line"/>
      <point x="488" y="45" type="line"/>
      <point x="289" y="45" type="line"/>
      <point x="428" y="700" type="line"/>
      <point x="399" y="700" type="line"/>
      <point x="174" y="612" type="line"/>
      <point x="162" y="558" type="line"/>
      <point x="365" y="637" type="line"/>
      <point x="240" y="45" type="line"/>
      <point x="53" y="45" type="line"/>
    </contour>
  </outline>
</glyph>
<glyph name="questiondown.cap" format="2">
  <advance width="494"/>
  <outline>
    <contour>
      <point x="355" y="705" type="curve" smooth="yes"/>
      <point x="325" y="705"/>
      <point x="300" y="682"/>
      <point x="300" y="653" type="curve" smooth="yes"/>
      <point x="300" y="630"/>
      <point x="317" y="612"/>
      <point x="339" y="612" type="curve" smooth="yes"/>
      <point x="369" y="612"/>
      <point x="394" y="635"/>
      <point x="394" y="664" type="curve" smooth="yes"/>
      <point x="394" y="687"/>
      <point x="377" y="705"/>
    </contour>
    <contour>
      <point x="338" y="496" type="curve"/>
      <point x="294" y="496" type="line"/>
      <point x="294" y="437"/>
      <point x="265" y="393"/>
      <point x="201" y="355" type="curve" smooth="yes"/>
      <point x="133" y="315" type="line" smooth="yes"/>
      <point x="52" y="266"/>
      <point x="16" y="215"/>
      <point x="16" y="143" type="curve" smooth="yes"/>
      <point x="16" y="53"/>
      <point x="91" y="-14"/>
      <point x="197" y="-14" type="curve" smooth="yes"/>
      <point x="267" y="-14"/>
      <point x="340" y="19"/>
      <point x="406" y="78" type="curve"/>
      <point x="375" y="118" type="line"/>
      <point x="319" y="66"/>
      <point x="259" y="34"/>
      <point x="199" y="34" type="curve" smooth="yes"/>
      <point x="120" y="34"/>
      <point x="65" y="81"/>
      <point x="65" y="144" type="curve"/>
      <point x="65" y="195"/>
      <point x="98" y="245"/>
      <point x="157" y="280" type="curve" smooth="yes"/>
      <point x="219" y="316" type="line" smooth="yes"/>
      <point x="301" y="361"/>
      <point x="338" y="418"/>
    </contour>
  </outline>
</glyph>
<glyph name="seven.tab" format="2">
  <advance width="600"/>
  <outline>
    <contour>
      <point x="66" y="0" type="line"/>
      <point x="125" y="0" type="line"/>
      <point x="629" y="662" type="line"/>
      <point x="637" y="700" type="line"/>
      <point x="147" y="700" type="line"/>
      <point x="138" y="655" type="line"/>
      <point x="564" y="655" type="line"/>
    </contour>
  </outline>
</glyph>
<glyph name="six.tab" format="2">
  <advance width="600"/>
  <outline>
    <contour>
      <point x="308" y="-11" type="curve" smooth="yes"/>
      <point x="437" y="-11"/>
      <point x="552" y="80"/>
      <point x="552" y="230" type="curve" smooth="yes"/>
      <point x="552" y="346"/>
      <point x="466" y="438"/>
      <point x="332" y="438" type="curve" smooth="yes"/>
      <point x="254" y="438"/>
      <point x="182" y="402"/>
      <point x="125" y="341" type="curve"/>
      <point x="145" y="542"/>
      <point x="266" y="666"/>
      <point x="408" y="666" type="curve" smooth="yes"/>
      <point x="461" y="666"/>
      <point x="505" y="649"/>
      <point x="562" y="612" type="curve"/>
      <point x="585" y="653" type="line"/>
      <point x="524" y="693"/>
      <point x="468" y="711"/>
      <point x="405" y="711" type="curve" smooth="yes"/>
      <point x="226" y="711"/>
      <point x="71" y="549"/>
      <point x="71" y="272" type="curve" smooth="yes"/>
      <point x="71" y="90"/>
      <point x="188" y="-11"/>
    </contour>
    <contour>
      <point x="316" y="34" type="curve" smooth="yes"/>
      <point x="206" y="34"/>
      <point x="120" y="124"/>
      <point x="122" y="292" type="curve"/>
      <point x="176" y="355"/>
      <point x="253" y="394"/>
      <point x="328" y="394" type="curve" smooth="yes"/>
      <point x="437" y="394"/>
      <point x="501" y="329"/>
      <point x="501" y="233" type="curve" smooth="yes"/>
      <point x="501" y="119"/>
      <point x="421" y="34"/>
    </contour>
  </outline>
</glyph>
<glyph name="two.tab" format="2">
  <advance width="600"/>
  <outline>
    <contour>
      <point x="40" y="0" type="line"/>
      <point x="466" y="0" type="line"/>
      <point x="476" y="45" type="line"/>
      <point x="120" y="45" type="line"/>
      <point x="458" y="363" type="line" smooth="yes"/>
      <point x="540" y="440"/>
      <point x="568" y="490"/>
      <point x="568" y="559" type="curve" smooth="yes"/>
      <point x="568" y="647"/>
      <point x="489" y="711"/>
      <point x="380" y="711" type="curve" smooth="yes"/>
      <point x="310" y="711"/>
      <point x="235" y="684"/>
      <point x="159" y="626" type="curve"/>
      <point x="181" y="587" type="line"/>
      <point x="262" y="647"/>
      <point x="322" y="666"/>
      <point x="384" y="666" type="curve" smooth="yes"/>
      <point x="462" y="666"/>
      <point x="517" y="619"/>
      <point x="517" y="553" type="curve" smooth="yes"/>
      <point x="517" y="504"/>
      <point x="488" y="452"/>
      <point x="426" y="394" type="curve" smooth="yes"/>
      <point x="48" y="38" type="line"/>
    </contour>
  </outline>
</glyph>
